<svg width="44" height="44" viewBox="0 0 44 44" fill="none" xmlns="http://www.w3.org/2000/svg">
<g id="Crown" clip-path="url(#clip0_0_3401)">
<path id="Vector" d="M21.7672 8.98357C22.0865 8.41001 22.0747 7.68128 21.6723 7.10858C21.4035 6.72597 20.9937 6.46582 20.533 6.38536C20.0724 6.3049 19.5987 6.41072 19.2161 6.67955C18.8334 6.94837 18.5733 7.35818 18.4928 7.81882C18.4124 8.27945 18.5182 8.75319 18.787 9.1358C19.195 9.71642 19.8873 9.97294 20.5422 9.85613C22.1435 13.3485 22.8841 16.2646 19.9696 19.0464C19.9696 19.0464 23.9314 22.8189 28.0374 19.9341C32.1434 17.0492 29.5062 12.411 29.5062 12.411C26.2948 14.9219 23.0714 10.9324 21.7672 8.98357Z" fill="#F19534"/>
<path id="Vector_2" d="M9.92094 17.3067C9.27312 17.4126 8.59154 17.1545 8.18916 16.5818C7.92033 16.1992 7.81451 15.7255 7.89497 15.2648C7.97543 14.8042 8.23558 14.3944 8.61819 14.1256C9.0008 13.8567 9.47453 13.7509 9.93517 13.8314C10.3958 13.9118 10.8056 14.172 11.0744 14.5546C11.4824 15.1352 11.489 15.8735 11.1571 16.45C13.8998 19.1404 16.3922 20.8257 19.9973 19.0268C19.9973 19.0268 22.2034 24.0329 18.0975 26.9178C13.9915 29.8027 10.5254 25.7499 10.5254 25.7499C13.9729 23.5793 11.3123 19.1943 9.92094 17.3067Z" fill="#F19534"/>
<path id="Vector_3" d="M27.9819 19.973C27.9997 19.9605 28.019 19.95 28.0368 19.9374C29.1683 19.1424 29.7859 18.2142 30.0885 17.2883L27.9819 19.973Z" fill="#FFCA28"/>
<path id="Vector_4" d="M25.9766 4.56091C25.254 4.93537 25.0652 6.00631 25.5546 6.9471C25.8605 7.53425 26.3575 7.93397 26.8638 8.06066L27.7736 10.3666C27.7736 10.3666 30.3196 15.5364 27.2917 19.0372C24.8715 21.8358 20.03 17.2073 18.6056 15.7277C18.9695 15.0576 18.9521 14.2114 18.4829 13.5436C17.8243 12.6063 16.5321 12.3806 15.5948 13.0392C14.6575 13.6977 14.4318 14.99 15.0903 15.9273C15.5623 16.5991 16.3626 16.904 17.1235 16.7779C18.0709 18.5601 20.8232 24.3901 17.2711 26.0748C13.6644 27.7831 8.45147 23.3504 7.0906 22.1044C7.25425 21.5158 7.07761 20.8052 6.57647 20.2605C5.85588 19.4792 4.73979 19.3399 4.08273 19.9466C3.42567 20.5533 3.47803 21.6768 4.19723 22.4561C4.72043 23.0238 5.45434 23.2511 6.06816 23.101L19.5923 36.9909C19.5923 36.9909 23.013 37.1834 29.4038 32.6931C35.7946 28.2029 36.7732 24.9195 36.7732 24.9195L28.2671 7.44176C28.5249 6.94092 28.5076 6.23383 28.172 5.5876C27.6832 4.64344 26.7011 4.18505 25.9766 4.56091Z" fill="#FFCA28"/>
<path id="Vector_5" d="M26.6805 28.6483C27.7465 27.8994 27.8869 26.2622 26.9941 24.9915C26.1014 23.7209 24.5135 23.298 23.4475 24.047C22.3815 24.7959 22.2411 26.4331 23.1339 27.7038C24.0266 28.9744 25.6145 29.3973 26.6805 28.6483Z" fill="#1B3A4B"/>
<path id="Vector_6" d="M23.847 24.6157C23.9807 24.646 24.1553 24.7513 24.2215 25.1488C24.2877 25.5463 23.8014 26.4888 23.7178 26.6689C23.6356 26.8509 23.516 26.8787 23.4487 26.8757C23.1237 26.8554 22.9384 26.4232 22.9117 26.0987C22.8515 25.398 23.1032 24.4545 23.847 24.6157Z" fill="#006466"/>
<path id="Vector_7" d="M25.5241 27.3059C25.3799 27.5641 24.8887 28.3858 25.3904 28.5986C25.6865 28.7251 26.0406 28.6183 26.3125 28.445C26.5845 28.2717 26.7856 28.0061 26.9345 27.7209C27.6404 26.3665 26.6687 24.7939 26.3719 24.8307C26.0664 24.8677 26.1316 25.2807 26.1086 25.4923C26.0341 26.1292 25.8355 26.7454 25.5241 27.3059Z" fill="#144552"/>
<path id="Vector_8" d="M34.3728 16.9952C33.4803 15.0678 32.0302 15.4473 32.0302 15.4473C32.0302 15.4473 31.1944 15.8333 32.1976 18.0025C33.1994 20.1698 34.0352 19.7838 34.0352 19.7838C34.0352 19.7838 35.2632 18.9239 34.3728 16.9952Z" fill="#1B3A4B"/>
<path id="Vector_9" d="M32.77 15.8009C33.2929 15.9722 33.3484 16.7294 33.0804 17.4475C33.0016 17.6598 32.7717 17.7622 32.6807 17.6959C32.422 17.5046 32.2586 17.1962 32.2011 16.8785C32.0246 15.928 32.5052 15.7147 32.77 15.8009Z" fill="#006466"/>
<path id="Vector_10" d="M12.9417 32.1299C11.4304 30.6403 12.2796 29.4013 12.2796 29.4013C12.2796 29.4013 12.926 28.7458 14.6267 30.425C16.3261 32.1021 15.6796 32.7576 15.6796 32.7576C15.6796 32.7576 14.4524 33.6228 12.9417 32.1299Z" fill="#1B3A4B"/>
<path id="Vector_11" d="M13.0403 29.7341C13.4451 29.7457 13.5185 30.0819 13.445 30.4028C13.3634 30.771 13.3491 31.1214 13.3206 31.4937C13.3159 31.5502 13.3101 31.6135 13.2695 31.6569C13.1922 31.7407 13.0535 31.6991 12.9611 31.6308C12.7005 31.441 12.5102 31.1366 12.4756 30.8176C12.3754 29.9083 12.883 29.7292 13.0403 29.7341Z" fill="#006466"/>
<path id="Vector_12" d="M31.9498 21.1721C32.3603 22.047 32.1162 23.0265 31.4021 23.3625C30.688 23.6985 30.1344 23.0959 29.7239 22.221C29.3135 21.3462 29.2016 20.5339 29.9137 20.1993C30.6277 19.8633 31.5408 20.2992 31.9498 21.1721Z" fill="#4D194D"/>
<path id="Vector_13" d="M18.1656 30.857C18.8495 31.5397 19.8538 31.6421 20.4119 31.0842C20.9701 30.5263 20.5908 29.8012 19.9069 29.1185C19.223 28.4357 18.4968 28.0551 17.9406 28.6116C17.3844 29.1681 17.485 30.1748 18.1656 30.857Z" fill="#4D194D"/>
<path id="Vector_14" d="M18.7223 29.6903C18.6918 29.9545 18.5688 30.5293 18.2685 30.3673C17.8586 30.1462 17.7324 29.4653 17.8822 29.1055C18.0319 28.7457 18.3466 28.7259 18.4914 28.8521C18.6735 29.0143 18.748 29.4532 18.7223 29.6903Z" fill="#FFA8A4" fill-opacity="0.1"/>
<path id="Vector_15" d="M30.3473 22.2654C30.1303 22.3735 29.6337 21.7131 29.7877 20.8117C29.8611 20.3812 30.4334 20.429 30.6277 20.8993C30.812 21.347 30.745 22.0689 30.3473 22.2654Z" fill="#FFA8A4" fill-opacity="0.1"/>
<path id="Vector_16" d="M35.3036 22.0865C34.5343 23.515 32.9239 27.0114 27.8965 30.5437C22.8691 34.076 19.0338 34.4057 17.4291 34.6452C17.4291 34.6452 17.1632 35.1725 17.3302 35.4103L18.6126 37.2354C18.7838 37.4791 19.07 37.6125 19.3677 37.5898C20.6794 37.4851 24.413 36.7917 29.6862 33.0868C34.9594 29.3818 36.8774 26.1043 37.4206 24.9058C37.4809 24.7725 37.5056 24.6259 37.492 24.4802C37.4784 24.3346 37.4271 24.195 37.3431 24.0752L36.0608 22.2501C35.8897 22.0151 35.3036 22.0865 35.3036 22.0865Z" fill="#FFCA28"/>
<path id="Vector_17" d="M23.2796 34.2728C23.9111 33.992 24.1129 33.9212 24.2925 34.2568C24.6426 34.9194 23.2787 35.6617 22.3938 35.9904C20.5646 36.6688 19.9508 36.4607 19.6821 36.0783C19.4356 35.7275 19.6759 35.4965 20.1951 35.3508C20.8164 35.1777 21.7941 34.9347 23.2796 34.2728Z" fill="#FFF59D"/>
<path id="Vector_18" d="M35.585 22.4867C35.585 22.4867 33.6074 26.6526 27.9537 30.6248C22.3001 34.5971 17.7105 35.0454 17.7105 35.0454" stroke="#F19534" stroke-width="1.58036" stroke-miterlimit="10" stroke-linecap="round"/>
<path id="Vector_19" d="M12.2462 23.8898C12.7713 22.3961 12.3899 20.6484 10.9302 18.4655C10.7977 18.2685 10.8128 18.172 10.9095 18.0863C11.0654 17.9502 11.2003 18.0833 11.2749 18.1936C12.8564 20.5456 13.5789 22.2016 12.9834 23.8395C12.9537 23.9195 12.719 24.4574 12.4234 24.4076C12.0734 24.3516 12.2122 23.9847 12.2462 23.8898Z" fill="#FFCA28"/>
<path id="Vector_20" d="M8.47324 16.468C8.18754 16.133 7.81688 15.4285 8.5521 14.4739C8.76767 14.1951 9.03277 14.2101 9.13827 14.2929C9.40133 14.4988 9.24385 14.7633 9.1625 14.8708C8.60349 15.6129 8.82122 15.9986 8.83411 16.3329C8.84699 16.6672 8.56171 16.5687 8.47324 16.468Z" fill="#FFCA28"/>
<path id="Vector_21" d="M22.0681 16.2785C22.4268 14.7626 22.3948 13.3732 21.2989 10.9288C21.2029 10.7121 21.2222 10.6216 21.328 10.5531C21.4992 10.4387 21.6171 10.5897 21.6745 10.7093C22.9341 13.2518 23.0586 14.1411 22.7983 16.2687C22.7685 16.5086 22.5388 16.8683 22.2493 16.8438C21.9887 16.8226 22.0244 16.469 22.0681 16.2785Z" fill="#FFCA28"/>
<path id="Vector_22" d="M19.0797 9.04248C18.794 8.70747 18.4233 8.00298 19.1585 7.04834C19.3741 6.7696 19.6392 6.78461 19.7447 6.86736C20.0078 7.07325 19.8503 7.3378 19.7689 7.44528C19.2099 8.18731 19.4277 8.57304 19.4405 8.90733C19.4554 9.24023 19.1682 9.14312 19.0797 9.04248Z" fill="#FFCA28"/>
<path id="Vector_23" d="M16.2319 27.616C13.1954 28.1895 10.6033 25.9409 9.41139 25.0113C9.25384 24.8882 9.1732 24.7228 9.29633 24.5653C9.41947 24.4077 9.58361 24.4433 9.74315 24.5651C10.6076 25.2394 13.6375 27.3906 16.3083 26.7306C16.5026 26.6828 16.8421 26.6604 16.8873 26.9986C16.9149 27.219 16.7208 27.5241 16.2319 27.616Z" fill="#FFF59D"/>
<path id="Vector_24" d="M5.94193 20.9372C5.66944 20.7853 5.47071 20.5994 4.68949 20.7724C4.49234 20.8162 4.29243 20.7465 4.22265 20.5587C4.15288 20.3709 4.22788 20.1406 4.48559 20.0188C5.32318 19.6227 6.01893 20.2675 6.23581 20.5087C6.44375 20.7415 6.21639 21.0877 5.94193 20.9372Z" fill="#FFF59D"/>
<path id="Vector_25" d="M29.1679 18.5269C30.7368 15.8647 29.5001 12.6638 29.0296 11.2273C28.9671 11.0374 28.8389 10.9055 28.6489 10.9679C28.459 11.0303 28.4369 11.1968 28.4973 11.3882C28.8386 12.43 29.8353 16.0098 28.309 18.2987C28.1982 18.4653 28.062 18.7771 28.3649 18.9343C28.5628 19.0349 28.9157 18.9557 29.1679 18.5269Z" fill="#FFF59D"/>
<path id="Vector_26" d="M26.3727 6.58232C26.3222 6.27448 26.2146 6.02447 26.6422 5.34815C26.7502 5.17753 26.7524 4.96582 26.5994 4.83653C26.4464 4.70724 26.2044 4.69972 26.0023 4.90086C25.3458 5.55457 25.7165 6.42772 25.87 6.71355C26.0185 6.98809 26.4233 6.89016 26.3727 6.58232Z" fill="#FFF59D"/>
<path id="Vector_27" d="M15.8812 15.41C15.828 15.0773 15.802 14.5895 16.3933 13.9609C16.6199 13.7188 16.6164 13.5496 16.4701 13.3919C16.1678 13.0627 15.734 13.4059 15.5307 13.6346C14.8519 14.3957 15.1783 15.2437 15.3451 15.5528C15.5022 15.8479 15.9363 15.7412 15.8812 15.41Z" fill="#FFF59D"/>
</g>
<defs>
<clipPath id="clip0_0_3401">
<rect width="31" height="31" fill="white" transform="translate(0 17.8218) rotate(-35.0921)"/>
</clipPath>
</defs>
</svg>
