<svg width="48" height="48" viewBox="0 0 48 48" fill="none" xmlns="http://www.w3.org/2000/svg">
<g id="Group">
<path id="Vector" d="M14.5043 0.417418L18.6782 4.38262C20.2434 5.84349 21.0782 7.82611 21.0782 10.0174C21.0782 12.1044 21.913 14.087 23.3738 15.5479L23.8956 16.0696L28.6956 0.521756" fill="url(#paint0_linear_0_3431)"/>
<path id="Vector_2" d="M0.31311 14.2956L6.05224 14.087C8.1392 13.9826 10.2261 14.8174 11.687 16.2783C13.1479 17.7391 15.1305 18.4696 17.2175 18.4696H17.9479L10.2262 4.17391" fill="url(#paint1_linear_0_3431)"/>
<path id="Vector_3" d="M0.313047 34.1218L4.17391 29.9478C5.63478 28.3826 7.61739 27.4435 9.70435 27.4435C11.7913 27.4435 13.6696 26.5044 15.1304 25.0435L15.6522 24.5218L0 20.0348" fill="url(#paint2_linear_0_3431)"/>
<path id="Vector_4" d="M14.5043 47.8957L14.1912 42.1565C14.0869 40.0696 14.8173 37.9826 16.2782 36.4174C17.6347 34.9565 18.4695 32.8696 18.3651 30.887V30.1565L4.17383 38.1913" fill="url(#paint3_linear_0_3431)"/>
<path id="Vector_5" d="M34.3305 47.4783L30.0522 43.7218C28.487 42.3652 27.5479 40.3826 27.4435 38.1913C27.3392 36.1044 26.4001 34.2261 24.9392 32.7652L24.4174 32.2435L20.2435 48" fill="url(#paint4_linear_0_3431)"/>
<path id="Vector_6" d="M47.8956 32.9739L42.1565 33.3913C40.0695 33.6 37.9826 32.8696 36.4173 31.4087C34.8521 30.0522 32.8695 29.3217 30.7826 29.4261H30.0521L38.4 43.4087" fill="url(#paint5_linear_0_3431)"/>
<path id="Vector_7" d="M46.9567 13.2522L43.3045 17.6348C41.948 19.2 39.9654 20.2435 37.8784 20.3478C35.7915 20.4522 33.9132 21.3913 32.5567 22.9565L32.1393 23.4783L48.0001 27.2348" fill="url(#paint6_linear_0_3431)"/>
<path id="Vector_8" d="M32.2433 0L32.7651 5.73913C32.9738 7.82609 32.3477 9.91305 30.8868 11.5826C29.5303 13.1478 28.9042 15.1304 29.0086 17.2174L29.1129 17.9478L42.8868 9.28697" fill="url(#paint7_linear_0_3431)"/>
</g>
<defs>
<linearGradient id="paint0_linear_0_3431" x1="21.5999" y1="0.417418" x2="21.5999" y2="16.0696" gradientUnits="userSpaceOnUse">
<stop stop-color="#7039F0"/>
<stop offset="0.811925" stop-color="#A657F8"/>
</linearGradient>
<linearGradient id="paint1_linear_0_3431" x1="9.1305" y1="4.17391" x2="9.1305" y2="18.4696" gradientUnits="userSpaceOnUse">
<stop stop-color="#7039F0"/>
<stop offset="0.811925" stop-color="#A657F8"/>
</linearGradient>
<linearGradient id="paint2_linear_0_3431" x1="7.82609" y1="20.0348" x2="7.82609" y2="34.1218" gradientUnits="userSpaceOnUse">
<stop stop-color="#7039F0"/>
<stop offset="0.811925" stop-color="#A657F8"/>
</linearGradient>
<linearGradient id="paint3_linear_0_3431" x1="11.2739" y1="30.1565" x2="11.2739" y2="47.8957" gradientUnits="userSpaceOnUse">
<stop stop-color="#7039F0"/>
<stop offset="0.811925" stop-color="#A657F8"/>
</linearGradient>
<linearGradient id="paint4_linear_0_3431" x1="27.287" y1="32.2435" x2="27.287" y2="48" gradientUnits="userSpaceOnUse">
<stop stop-color="#7039F0"/>
<stop offset="0.811925" stop-color="#A657F8"/>
</linearGradient>
<linearGradient id="paint5_linear_0_3431" x1="38.9739" y1="29.4162" x2="38.9739" y2="43.4087" gradientUnits="userSpaceOnUse">
<stop stop-color="#7039F0"/>
<stop offset="0.811925" stop-color="#A657F8"/>
</linearGradient>
<linearGradient id="paint6_linear_0_3431" x1="40.0697" y1="13.2522" x2="40.0697" y2="27.2348" gradientUnits="userSpaceOnUse">
<stop stop-color="#7039F0"/>
<stop offset="0.811925" stop-color="#A657F8"/>
</linearGradient>
<linearGradient id="paint7_linear_0_3431" x1="35.9421" y1="0" x2="35.9421" y2="17.9478" gradientUnits="userSpaceOnUse">
<stop stop-color="#7039F0"/>
<stop offset="0.811925" stop-color="#A657F8"/>
</linearGradient>
</defs>
</svg>
