<svg width="45" height="41" viewBox="0 0 45 41" fill="none" xmlns="http://www.w3.org/2000/svg">
<path d="M16.809 6.43866L26.7484 5.18131L35.2357 8.77044L39.5761 16.0665L38.3917 24.7532L32.0584 32.0723L22.5871 35.7003L12.9848 34.4852L6.30024 28.8128L4.65562 20.4841L8.57315 12.1433L16.809 6.43866Z" fill="url(#paint0_linear_0_3267)"/>
<path d="M15.8171 17.8192L18.9389 25.969L17.8087 26.4019L11.3767 22.0117L11.3011 22.0406L13.5906 28.0177L12.3609 28.4887L9.23915 20.3389L10.3773 19.9029L16.8164 24.2996L16.892 24.2707L14.5994 18.2856L15.8171 17.8192ZM23.3187 24.4328C22.7165 24.6635 22.1486 24.7335 21.6149 24.6428C21.0829 24.5485 20.6089 24.3117 20.1929 23.9326C19.7786 23.5498 19.45 23.0414 19.2071 22.4073C18.9673 21.7812 18.8726 21.1847 18.9232 20.6177C18.9764 20.0498 19.1626 19.551 19.4817 19.1215C19.8036 18.691 20.2484 18.367 20.8161 18.1495C21.161 18.0174 21.5171 17.9464 21.8845 17.9365C22.2518 17.9266 22.6109 17.9944 22.9617 18.1399C23.3125 18.2854 23.6369 18.5247 23.9349 18.8577C24.2318 19.1882 24.4865 19.6306 24.6989 20.1851L24.8604 20.6069L20.0016 22.4681L19.6601 21.5767L23.353 20.1621C23.2331 19.8491 23.0632 19.5962 22.8434 19.4036C22.6226 19.2083 22.3699 19.0845 22.0852 19.0324C21.8032 18.9791 21.5083 19.0115 21.2006 19.1294C20.8663 19.2574 20.606 19.4514 20.4196 19.7114C20.2349 19.9678 20.1251 20.2532 20.0904 20.5676C20.0574 20.8784 20.0993 21.1864 20.2162 21.4915L20.4829 22.1879C20.6394 22.5964 20.8442 22.9165 21.0972 23.1481C21.3528 23.3788 21.6396 23.5199 21.9575 23.5715C22.2744 23.6205 22.6066 23.5784 22.9542 23.4453C23.1797 23.3589 23.3731 23.2483 23.5344 23.1135C23.6947 22.9761 23.8176 22.8164 23.9031 22.6346C23.9886 22.4528 24.0306 22.2527 24.0291 22.0342L25.233 21.8058C25.2698 22.172 25.2192 22.5244 25.0813 22.8632C24.945 23.1984 24.7282 23.502 24.4308 23.7741C24.1351 24.0425 23.7644 24.2621 23.3187 24.4328ZM28.5283 22.2958L24.3883 16.8724L25.6179 16.4014L28.5351 20.4314L28.5948 20.4085L28.0772 15.4594L29.3068 14.9884L32.2124 19L32.2721 18.9771L31.7502 14.0525L32.9798 13.5815L33.5264 20.3813L32.3127 20.8462L29.3807 16.9086L29.2891 16.9437L29.738 21.8324L28.5283 22.2958Z" fill="white"/>
<defs>
<linearGradient id="paint0_linear_0_3267" x1="16.809" y1="6.43866" x2="27.5401" y2="34.4537" gradientUnits="userSpaceOnUse">
<stop stop-color="#7039F0"/>
<stop offset="0.811925" stop-color="#A657F8"/>
</linearGradient>
</defs>
</svg>
