<svg width="40" height="40" viewBox="0 0 40 40" fill="none" xmlns="http://www.w3.org/2000/svg">
<g id="Group">
<g id="Group_2">
<path id="Path" fill-rule="evenodd" clip-rule="evenodd" d="M5 18.8183C5 23.29 7.36667 27.2266 10.9983 29.7083C10.9967 31.1333 11 33.0533 11 35.0683L16.885 32.1566C17.8917 32.35 18.9317 32.455 20 32.455C28.2533 32.455 35 26.3833 35 18.8183C35 11.2533 28.2533 5.18164 20 5.18164C11.7467 5.18164 5 11.2533 5 18.8183Z" stroke="white" stroke-width="1.5" stroke-linecap="round" stroke-linejoin="round"/>
<path id="Path_2" d="M19.8316 20.5466V20.2016C19.8316 19.0716 20.53 18.46 21.23 17.99C21.9133 17.53 22.5983 16.93 22.5983 15.8233C22.5983 14.295 21.36 13.0583 19.8333 13.0583C18.3067 13.0583 17.0667 14.2933 17.0667 15.8216" stroke="white" stroke-width="1.5" stroke-linecap="round" stroke-linejoin="round"/>
<path id="Path_3" d="M19.83 24.445C19.6916 24.445 19.58 24.5566 19.5816 24.695C19.5816 24.8333 19.6933 24.945 19.8316 24.945C19.97 24.945 20.0816 24.8333 20.0816 24.695C20.0816 24.5566 19.9716 24.445 19.83 24.445" stroke="white" stroke-width="1.5" stroke-linecap="round" stroke-linejoin="round"/>
</g>
</g>
</svg>
