<svg width="334" height="723" viewBox="0 0 334 723" fill="none" xmlns="http://www.w3.org/2000/svg">
<g clip-path="url(#clip0_0_3352)">
<rect width="334" height="722.86" rx="12" fill="#10121B"/>
<path d="M20.0595 23.2947H21.584V14.7681H20.0654L17.8377 16.3281V17.7935L19.959 16.3044H20.0595V23.2947ZM23.7303 17.2617V17.2853H25.1603V17.2617C25.1603 16.3931 25.763 15.8081 26.6552 15.8081C27.4943 15.8081 28.1088 16.3517 28.1088 17.1021C28.1088 17.7048 27.8193 18.148 26.6552 19.3298L23.813 22.237V23.2947H29.7338V22.0006H25.9048V21.9002L27.6893 20.1098C29.137 18.6798 29.6038 17.9235 29.6038 17.0076C29.6038 15.5835 28.3865 14.5554 26.7025 14.5554C24.9534 14.5554 23.7303 15.6663 23.7303 17.2617ZM32.341 22.3906C32.9023 22.3906 33.2864 21.9888 33.2864 21.457C33.2864 20.9193 32.9023 20.5234 32.341 20.5234C31.7855 20.5234 31.3955 20.9193 31.3955 21.457C31.3955 21.9888 31.7855 22.3906 32.341 22.3906ZM32.341 17.9589C32.9023 17.9589 33.2864 17.563 33.2864 17.0312C33.2864 16.4935 32.9023 16.0976 32.341 16.0976C31.7855 16.0976 31.3955 16.4935 31.3955 17.0312C31.3955 17.563 31.7855 17.9589 32.341 17.9589ZM34.9954 17.2617V17.2853H36.4254V17.2617C36.4254 16.3931 37.0281 15.8081 37.9203 15.8081C38.7594 15.8081 39.3739 16.3517 39.3739 17.1021C39.3739 17.7048 39.0844 18.148 37.9203 19.3298L35.0781 22.237V23.2947H40.9989V22.0006H37.1699V21.9002L38.9544 20.1098C40.4021 18.6798 40.8689 17.9235 40.8689 17.0076C40.8689 15.5835 39.6516 14.5554 37.9676 14.5554C36.2186 14.5554 34.9954 15.6663 34.9954 17.2617ZM42.4243 17.2617V17.2853H43.8543V17.2617C43.8543 16.3931 44.457 15.8081 45.3492 15.8081C46.1883 15.8081 46.8028 16.3517 46.8028 17.1021C46.8028 17.7048 46.5133 18.148 45.3492 19.3298L42.507 22.237V23.2947H48.4277V22.0006H44.5988V21.9002L46.3833 20.1098C47.8309 18.6798 48.2978 17.9235 48.2978 17.0076C48.2978 15.5835 47.0805 14.5554 45.3965 14.5554C43.6474 14.5554 42.4243 15.6663 42.4243 17.2617Z" fill="white"/>
<path opacity="0.35" fill-rule="evenodd" clip-rule="evenodd" d="M304.553 14.1184H319.882C320.996 14.1184 321.899 15.0214 321.899 16.1353V21.3793C321.899 22.4932 320.996 23.3962 319.882 23.3962H304.553C303.439 23.3962 302.536 22.4932 302.536 21.3793V16.1353C302.536 15.0214 303.439 14.1184 304.553 14.1184ZM304.553 14.9251C303.885 14.9251 303.343 15.4669 303.343 16.1353V21.3792C303.343 22.0476 303.885 22.5894 304.553 22.5894H319.882C320.55 22.5894 321.092 22.0476 321.092 21.3792V16.1353C321.092 15.4669 320.55 14.9251 319.882 14.9251H304.553Z" fill="white"/>
<path opacity="0.4" fill-rule="evenodd" clip-rule="evenodd" d="M322.705 16.7805C323.424 17.1477 323.915 17.895 323.915 18.7572C323.915 19.6194 323.424 20.3667 322.705 20.7339V16.7805Z" fill="white"/>
<path fill-rule="evenodd" clip-rule="evenodd" d="M304.957 15.7319H319.478C319.924 15.7319 320.285 16.0931 320.285 16.5387V20.9759C320.285 21.4215 319.924 21.7827 319.478 21.7827H304.957C304.511 21.7827 304.15 21.4215 304.15 20.9759V16.5387C304.15 16.0931 304.511 15.7319 304.957 15.7319Z" fill="white"/>
<path fill-rule="evenodd" clip-rule="evenodd" d="M297.682 16.5571C296.14 15.2402 294.192 14.5217 292.155 14.5217C290.113 14.5217 288.159 15.2445 286.616 16.5686L286.485 16.681C286.379 16.7719 286.372 16.9336 286.471 17.0322L287.381 17.9388C287.469 18.0268 287.61 18.0328 287.705 17.9527L287.818 17.858C289.034 16.8367 290.56 16.2808 292.155 16.2808C293.745 16.2808 295.267 16.8329 296.481 17.8479L296.593 17.942C296.689 18.0218 296.83 18.0157 296.918 17.9278L297.827 17.0211C297.926 16.9223 297.92 16.7604 297.813 16.6696L297.682 16.5571ZM292.155 17.3211C293.439 17.3211 294.671 17.7468 295.675 18.5353L295.817 18.6467C295.93 18.7356 295.94 18.903 295.838 19.0045L294.926 19.9142C294.841 19.9984 294.708 20.0081 294.612 19.9369L294.501 19.8543C293.823 19.3504 293.005 19.0801 292.155 19.0801C291.3 19.0801 290.478 19.3538 289.798 19.8634L289.686 19.9468C289.591 20.0185 289.457 20.0091 289.372 19.9247L288.46 19.0153C288.358 18.914 288.368 18.747 288.481 18.658L288.622 18.5465C289.628 17.751 290.866 17.3211 292.155 17.3211ZM292.155 20.1203C292.671 20.1203 293.173 20.2559 293.614 20.5144L293.793 20.6191C293.929 20.6986 293.953 20.8844 293.842 20.9953L292.314 22.5192C292.22 22.6128 292.067 22.6128 291.974 22.5192L290.455 21.0051C290.345 20.8947 290.368 20.7098 290.502 20.6298L290.679 20.5246C291.125 20.2595 291.633 20.1203 292.155 20.1203Z" fill="white"/>
<path opacity="0.25" fill-rule="evenodd" clip-rule="evenodd" d="M281.157 14.5217H281.964C282.409 14.5217 282.771 14.8829 282.771 15.3285V21.7826C282.771 22.2282 282.409 22.5894 281.964 22.5894H281.157C280.711 22.5894 280.35 22.2282 280.35 21.7826V15.3285C280.35 14.8829 280.711 14.5217 281.157 14.5217Z" fill="white"/>
<path fill-rule="evenodd" clip-rule="evenodd" d="M278.333 16.1353H277.527C277.081 16.1353 276.72 16.4965 276.72 16.942V21.7826C276.72 22.2282 277.081 22.5894 277.527 22.5894H278.333C278.779 22.5894 279.14 22.2282 279.14 21.7826V16.942C279.14 16.4965 278.779 16.1353 278.333 16.1353ZM273.896 17.7488H274.703C275.148 17.7488 275.51 18.11 275.51 18.5555V21.7826C275.51 22.2282 275.148 22.5894 274.703 22.5894H273.896C273.451 22.5894 273.089 22.2282 273.089 21.7826V18.5555C273.089 18.11 273.451 17.7488 273.896 17.7488ZM270.266 18.9589H271.072C271.518 18.9589 271.879 19.3201 271.879 19.7657V21.7826C271.879 22.2282 271.518 22.5894 271.072 22.5894H270.266C269.82 22.5894 269.459 22.2282 269.459 21.7826V19.7657C269.459 19.3201 269.82 18.9589 270.266 18.9589Z" fill="white"/>
<path fill-rule="evenodd" clip-rule="evenodd" d="M57.0205 23.2269L60.7011 14.7234L52.1976 18.404H57.0205V23.2269Z" fill="white"/>
<rect x="109" y="94" width="116" height="36.1353" rx="18.0676" fill="#0CBC8B"/>
<path fill-rule="evenodd" clip-rule="evenodd" d="M128.8 110.773H132.133C132.591 110.773 132.966 111.148 132.966 111.607V114.151C132.966 114.611 132.593 114.984 132.133 114.984H128.8C128.34 114.984 127.966 114.611 127.966 114.151V111.607C127.966 111.147 128.34 110.773 128.8 110.773Z" stroke="white" stroke-width="1.5" stroke-linecap="round" stroke-linejoin="round"/>
<path d="M129.063 110.773V109.721C129.063 108.946 129.691 108.318 130.466 108.318C131.241 108.318 131.87 108.946 131.87 109.721V110.772" stroke="white" stroke-width="1.5" stroke-linecap="round" stroke-linejoin="round"/>
<path fill-rule="evenodd" clip-rule="evenodd" d="M125.444 106.29L129.895 104.668C130.264 104.534 130.668 104.534 131.036 104.668L135.488 106.29C136.476 106.65 137.133 107.588 137.133 108.639V112.699C137.133 115.683 135.61 116.908 131.295 119.35C130.781 119.641 130.151 119.641 129.637 119.35C125.323 116.908 123.8 115.683 123.8 112.699V108.639C123.8 107.588 124.456 106.65 125.444 106.29Z" stroke="white" stroke-width="1.5" stroke-linecap="round" stroke-linejoin="round"/>
<path d="M156.005 109.63C155.952 109.134 155.729 108.748 155.335 108.471C154.945 108.195 154.437 108.056 153.812 108.056C153.373 108.056 152.996 108.123 152.682 108.255C152.367 108.388 152.127 108.568 151.96 108.795C151.793 109.022 151.708 109.282 151.704 109.573C151.704 109.816 151.759 110.026 151.869 110.204C151.983 110.382 152.136 110.534 152.329 110.659C152.522 110.78 152.736 110.882 152.971 110.965C153.206 111.049 153.443 111.119 153.682 111.176L154.772 111.448C155.212 111.551 155.634 111.689 156.039 111.863C156.449 112.037 156.814 112.257 157.136 112.522C157.462 112.787 157.719 113.107 157.909 113.482C158.098 113.857 158.193 114.297 158.193 114.801C158.193 115.482 158.019 116.083 157.67 116.602C157.322 117.117 156.818 117.52 156.159 117.812C155.504 118.1 154.71 118.244 153.778 118.244C152.873 118.244 152.087 118.104 151.42 117.823C150.757 117.543 150.238 117.134 149.863 116.596C149.492 116.058 149.291 115.403 149.261 114.63H151.335C151.365 115.035 151.49 115.373 151.71 115.641C151.93 115.91 152.216 116.111 152.568 116.244C152.924 116.376 153.322 116.443 153.761 116.443C154.219 116.443 154.621 116.374 154.966 116.238C155.314 116.098 155.587 115.905 155.784 115.659C155.981 115.409 156.081 115.117 156.085 114.784C156.081 114.481 155.992 114.231 155.818 114.034C155.644 113.833 155.399 113.666 155.085 113.534C154.774 113.397 154.411 113.276 153.994 113.17L152.67 112.829C151.712 112.583 150.954 112.21 150.397 111.71C149.844 111.206 149.568 110.537 149.568 109.704C149.568 109.018 149.754 108.418 150.125 107.903C150.5 107.388 151.009 106.988 151.653 106.704C152.297 106.416 153.026 106.272 153.841 106.272C154.666 106.272 155.39 106.416 156.011 106.704C156.636 106.988 157.127 107.384 157.483 107.891C157.839 108.395 158.022 108.975 158.034 109.63H156.005ZM163.845 118.238C162.97 118.238 162.214 118.056 161.578 117.693C160.945 117.325 160.459 116.806 160.118 116.136C159.777 115.462 159.606 114.668 159.606 113.755C159.606 112.857 159.777 112.07 160.118 111.391C160.462 110.71 160.943 110.179 161.561 109.801C162.178 109.418 162.904 109.227 163.737 109.227C164.275 109.227 164.782 109.314 165.26 109.488C165.741 109.659 166.165 109.924 166.532 110.284C166.904 110.643 167.195 111.102 167.407 111.659C167.62 112.212 167.726 112.871 167.726 113.636V114.266H160.572V112.88H165.754C165.75 112.486 165.665 112.136 165.498 111.829C165.332 111.518 165.099 111.274 164.799 111.096C164.504 110.918 164.159 110.829 163.765 110.829C163.345 110.829 162.976 110.931 162.657 111.136C162.339 111.337 162.091 111.602 161.913 111.931C161.739 112.257 161.65 112.615 161.646 113.005V114.215C161.646 114.723 161.739 115.159 161.924 115.522C162.11 115.882 162.37 116.159 162.703 116.352C163.036 116.541 163.426 116.636 163.873 116.636C164.173 116.636 164.443 116.594 164.686 116.511C164.928 116.424 165.138 116.297 165.316 116.13C165.495 115.963 165.629 115.757 165.72 115.511L167.64 115.727C167.519 116.234 167.288 116.677 166.947 117.056C166.61 117.431 166.178 117.723 165.652 117.931C165.125 118.136 164.523 118.238 163.845 118.238ZM173.272 118.238C172.401 118.238 171.653 118.047 171.028 117.664C170.407 117.282 169.928 116.753 169.591 116.079C169.257 115.401 169.091 114.621 169.091 113.738C169.091 112.852 169.261 112.07 169.602 111.391C169.943 110.71 170.424 110.179 171.045 109.801C171.67 109.418 172.409 109.227 173.261 109.227C173.969 109.227 174.596 109.357 175.142 109.619C175.691 109.876 176.129 110.242 176.454 110.715C176.78 111.185 176.966 111.734 177.011 112.363H175.045C174.966 111.943 174.776 111.592 174.477 111.312C174.182 111.028 173.786 110.886 173.289 110.886C172.869 110.886 172.5 110.999 172.182 111.227C171.863 111.45 171.615 111.772 171.437 112.193C171.263 112.613 171.176 113.117 171.176 113.704C171.176 114.299 171.263 114.81 171.437 115.238C171.611 115.662 171.856 115.99 172.17 116.221C172.488 116.448 172.861 116.562 173.289 116.562C173.593 116.562 173.863 116.505 174.102 116.391C174.344 116.274 174.547 116.106 174.71 115.886C174.873 115.666 174.985 115.399 175.045 115.085H177.011C176.962 115.702 176.78 116.249 176.466 116.727C176.151 117.2 175.723 117.571 175.182 117.84C174.64 118.106 174.004 118.238 173.272 118.238ZM184.263 114.397V109.34H186.319V118.068H184.325V116.516H184.234C184.037 117.005 183.713 117.405 183.263 117.715C182.816 118.026 182.264 118.181 181.609 118.181C181.037 118.181 180.531 118.054 180.092 117.801C179.656 117.543 179.316 117.17 179.069 116.681C178.823 116.189 178.7 115.594 178.7 114.897V109.34H180.757V114.579C180.757 115.132 180.908 115.571 181.211 115.897C181.514 116.223 181.912 116.386 182.405 116.386C182.708 116.386 183.001 116.312 183.285 116.164C183.569 116.016 183.802 115.797 183.984 115.505C184.17 115.21 184.263 114.84 184.263 114.397ZM188.434 118.068V109.34H190.429V110.795H190.52C190.679 110.291 190.951 109.903 191.338 109.63C191.728 109.354 192.173 109.215 192.673 109.215C192.787 109.215 192.914 109.221 193.054 109.232C193.198 109.24 193.317 109.253 193.412 109.272V111.164C193.325 111.134 193.186 111.107 192.997 111.085C192.811 111.058 192.631 111.045 192.457 111.045C192.082 111.045 191.745 111.126 191.446 111.289C191.15 111.448 190.917 111.67 190.747 111.954C190.576 112.238 190.491 112.566 190.491 112.937V118.068H188.434ZM198.282 118.238C197.407 118.238 196.652 118.056 196.015 117.693C195.383 117.325 194.896 116.806 194.555 116.136C194.214 115.462 194.044 114.668 194.044 113.755C194.044 112.857 194.214 112.07 194.555 111.391C194.9 110.71 195.381 110.179 195.998 109.801C196.616 109.418 197.341 109.227 198.174 109.227C198.712 109.227 199.22 109.314 199.697 109.488C200.178 109.659 200.602 109.924 200.97 110.284C201.341 110.643 201.633 111.102 201.845 111.659C202.057 112.212 202.163 112.871 202.163 113.636V114.266H195.01V112.88H200.191C200.188 112.486 200.102 112.136 199.936 111.829C199.769 111.518 199.536 111.274 199.237 111.096C198.941 110.918 198.597 110.829 198.203 110.829C197.782 110.829 197.413 110.931 197.095 111.136C196.777 111.337 196.529 111.602 196.351 111.931C196.176 112.257 196.087 112.615 196.084 113.005V114.215C196.084 114.723 196.176 115.159 196.362 115.522C196.548 115.882 196.807 116.159 197.14 116.352C197.474 116.541 197.864 116.636 198.311 116.636C198.61 116.636 198.881 116.594 199.123 116.511C199.366 116.424 199.576 116.297 199.754 116.13C199.932 115.963 200.066 115.757 200.157 115.511L202.078 115.727C201.957 116.234 201.726 116.677 201.385 117.056C201.048 117.431 200.616 117.723 200.089 117.931C199.563 118.136 198.96 118.238 198.282 118.238ZM207.142 118.221C206.456 118.221 205.843 118.045 205.301 117.693C204.759 117.34 204.331 116.829 204.017 116.159C203.702 115.488 203.545 114.674 203.545 113.715C203.545 112.746 203.704 111.927 204.022 111.261C204.344 110.59 204.778 110.085 205.324 109.744C205.869 109.399 206.477 109.227 207.147 109.227C207.659 109.227 208.079 109.314 208.409 109.488C208.738 109.659 209 109.865 209.193 110.107C209.386 110.346 209.536 110.571 209.642 110.784H209.727V106.431H211.789V118.068H209.767V116.693H209.642C209.536 116.905 209.382 117.13 209.182 117.369C208.981 117.604 208.716 117.804 208.386 117.971C208.057 118.138 207.642 118.221 207.142 118.221ZM207.716 116.534C208.151 116.534 208.522 116.416 208.829 116.181C209.136 115.943 209.369 115.611 209.528 115.187C209.687 114.763 209.767 114.268 209.767 113.704C209.767 113.14 209.687 112.649 209.528 112.232C209.373 111.816 209.142 111.492 208.835 111.261C208.532 111.03 208.159 110.914 207.716 110.914C207.257 110.914 206.875 111.034 206.568 111.272C206.261 111.511 206.03 111.84 205.875 112.261C205.719 112.681 205.642 113.162 205.642 113.704C205.642 114.249 205.719 114.736 205.875 115.164C206.034 115.588 206.267 115.924 206.574 116.17C206.884 116.412 207.265 116.534 207.716 116.534Z" fill="white"/>
<rect x="99.5" y="405.801" width="134.406" height="36.1353" rx="12.1014" fill="#0CBC8B"/>
<path d="M134.811 422.158H132.686C132.625 421.81 132.514 421.501 132.351 421.232C132.188 420.959 131.985 420.728 131.743 420.539C131.5 420.349 131.224 420.207 130.913 420.113C130.606 420.014 130.275 419.965 129.919 419.965C129.286 419.965 128.726 420.124 128.237 420.442C127.748 420.757 127.366 421.219 127.089 421.829C126.813 422.435 126.675 423.175 126.675 424.05C126.675 424.94 126.813 425.69 127.089 426.3C127.37 426.906 127.752 427.365 128.237 427.675C128.726 427.982 129.284 428.135 129.913 428.135C130.262 428.135 130.587 428.09 130.89 427.999C131.197 427.904 131.472 427.766 131.714 427.584C131.96 427.402 132.167 427.179 132.334 426.914C132.504 426.649 132.621 426.346 132.686 426.005L134.811 426.016C134.731 426.569 134.559 427.088 134.294 427.573C134.032 428.058 133.69 428.486 133.265 428.857C132.841 429.224 132.345 429.512 131.777 429.721C131.209 429.925 130.578 430.027 129.885 430.027C128.862 430.027 127.949 429.791 127.146 429.317C126.343 428.844 125.71 428.16 125.248 427.266C124.786 426.372 124.555 425.3 124.555 424.05C124.555 422.796 124.788 421.724 125.254 420.834C125.72 419.94 126.354 419.257 127.157 418.783C127.96 418.31 128.87 418.073 129.885 418.073C130.532 418.073 131.135 418.164 131.692 418.346C132.248 418.527 132.745 418.795 133.18 419.147C133.616 419.495 133.974 419.923 134.254 420.431C134.538 420.935 134.724 421.51 134.811 422.158ZM140.498 430.039C139.645 430.039 138.907 429.851 138.282 429.476C137.657 429.101 137.172 428.577 136.827 427.902C136.486 427.228 136.316 426.44 136.316 425.539C136.316 424.637 136.486 423.848 136.827 423.17C137.172 422.492 137.657 421.965 138.282 421.59C138.907 421.215 139.645 421.027 140.498 421.027C141.35 421.027 142.088 421.215 142.713 421.59C143.338 421.965 143.821 422.492 144.162 423.17C144.507 423.848 144.679 424.637 144.679 425.539C144.679 426.44 144.507 427.228 144.162 427.902C143.821 428.577 143.338 429.101 142.713 429.476C142.088 429.851 141.35 430.039 140.498 430.039ZM140.509 428.391C140.971 428.391 141.357 428.264 141.668 428.01C141.979 427.753 142.21 427.408 142.361 426.976C142.516 426.545 142.594 426.063 142.594 425.533C142.594 424.999 142.516 424.516 142.361 424.084C142.21 423.649 141.979 423.302 141.668 423.045C141.357 422.787 140.971 422.658 140.509 422.658C140.035 422.658 139.641 422.787 139.327 423.045C139.016 423.302 138.783 423.649 138.628 424.084C138.477 424.516 138.401 424.999 138.401 425.533C138.401 426.063 138.477 426.545 138.628 426.976C138.783 427.408 139.016 427.753 139.327 428.01C139.641 428.264 140.035 428.391 140.509 428.391ZM148.522 424.755V429.868H146.465V421.141H148.431V422.624H148.534C148.734 422.135 149.054 421.747 149.494 421.459C149.937 421.171 150.484 421.027 151.136 421.027C151.738 421.027 152.263 421.156 152.71 421.414C153.16 421.671 153.509 422.045 153.755 422.533C154.005 423.022 154.128 423.615 154.124 424.312V429.868H152.068V424.63C152.068 424.046 151.916 423.59 151.613 423.26C151.314 422.931 150.899 422.766 150.369 422.766C150.009 422.766 149.689 422.846 149.409 423.005C149.132 423.16 148.914 423.385 148.755 423.681C148.6 423.976 148.522 424.334 148.522 424.755ZM158.313 424.755V429.868H156.256V421.141H158.222V422.624H158.324C158.525 422.135 158.845 421.747 159.284 421.459C159.727 421.171 160.275 421.027 160.926 421.027C161.528 421.027 162.053 421.156 162.5 421.414C162.951 421.671 163.299 422.045 163.546 422.533C163.796 423.022 163.919 423.615 163.915 424.312V429.868H161.858V424.63C161.858 424.046 161.706 423.59 161.403 423.26C161.104 422.931 160.689 422.766 160.159 422.766C159.799 422.766 159.479 422.846 159.199 423.005C158.922 423.16 158.705 423.385 158.546 423.681C158.39 423.976 158.313 424.334 158.313 424.755ZM169.91 430.039C169.035 430.039 168.279 429.857 167.643 429.493C167.01 429.126 166.523 428.607 166.182 427.937C165.842 427.262 165.671 426.469 165.671 425.556C165.671 424.658 165.842 423.87 166.182 423.192C166.527 422.51 167.008 421.98 167.626 421.601C168.243 421.219 168.968 421.027 169.802 421.027C170.34 421.027 170.847 421.115 171.324 421.289C171.806 421.459 172.23 421.724 172.597 422.084C172.968 422.444 173.26 422.902 173.472 423.459C173.684 424.012 173.79 424.671 173.79 425.437V426.067H166.637V424.681H171.819C171.815 424.287 171.73 423.937 171.563 423.63C171.396 423.319 171.164 423.075 170.864 422.897C170.569 422.719 170.224 422.63 169.83 422.63C169.41 422.63 169.04 422.732 168.722 422.937C168.404 423.137 168.156 423.402 167.978 423.732C167.804 424.058 167.715 424.416 167.711 424.806V426.016C167.711 426.524 167.804 426.959 167.989 427.323C168.175 427.683 168.434 427.959 168.768 428.152C169.101 428.342 169.491 428.437 169.938 428.437C170.237 428.437 170.508 428.395 170.751 428.312C170.993 428.224 171.203 428.098 171.381 427.931C171.559 427.764 171.694 427.558 171.785 427.312L173.705 427.527C173.584 428.035 173.353 428.478 173.012 428.857C172.675 429.232 172.243 429.524 171.717 429.732C171.19 429.937 170.588 430.039 169.91 430.039ZM179.378 430.039C178.506 430.039 177.758 429.848 177.133 429.465C176.512 429.082 176.033 428.554 175.696 427.88C175.362 427.202 175.196 426.421 175.196 425.539C175.196 424.652 175.366 423.87 175.707 423.192C176.048 422.51 176.529 421.98 177.15 421.601C177.775 421.219 178.514 421.027 179.366 421.027C180.075 421.027 180.701 421.158 181.247 421.42C181.796 421.677 182.234 422.043 182.559 422.516C182.885 422.986 183.071 423.535 183.116 424.164H181.15C181.071 423.743 180.881 423.393 180.582 423.113C180.287 422.829 179.891 422.687 179.395 422.687C178.974 422.687 178.605 422.8 178.287 423.027C177.969 423.251 177.72 423.573 177.542 423.993C177.368 424.414 177.281 424.918 177.281 425.505C177.281 426.099 177.368 426.611 177.542 427.039C177.717 427.463 177.961 427.791 178.275 428.022C178.594 428.249 178.967 428.363 179.395 428.363C179.698 428.363 179.969 428.306 180.207 428.192C180.45 428.075 180.652 427.906 180.815 427.687C180.978 427.467 181.09 427.2 181.15 426.885H183.116C183.067 427.503 182.885 428.05 182.571 428.527C182.256 429.001 181.828 429.372 181.287 429.641C180.745 429.906 180.109 430.039 179.378 430.039ZM189.203 421.141V422.732H184.186V421.141H189.203ZM185.425 419.05H187.482V427.243C187.482 427.52 187.524 427.732 187.607 427.88C187.694 428.024 187.808 428.122 187.948 428.175C188.088 428.228 188.243 428.255 188.414 428.255C188.542 428.255 188.66 428.245 188.766 428.226C188.876 428.207 188.959 428.19 189.016 428.175L189.363 429.783C189.253 429.821 189.096 429.863 188.891 429.908C188.69 429.954 188.444 429.98 188.152 429.988C187.637 430.003 187.173 429.925 186.76 429.755C186.347 429.581 186.02 429.312 185.777 428.948C185.539 428.584 185.421 428.13 185.425 427.584V419.05ZM194.734 430.039C193.859 430.039 193.103 429.857 192.467 429.493C191.834 429.126 191.347 428.607 191.007 427.937C190.666 427.262 190.495 426.469 190.495 425.556C190.495 424.658 190.666 423.87 191.007 423.192C191.351 422.51 191.832 421.98 192.45 421.601C193.067 421.219 193.793 421.027 194.626 421.027C195.164 421.027 195.671 421.115 196.149 421.289C196.63 421.459 197.054 421.724 197.421 422.084C197.793 422.444 198.084 422.902 198.296 423.459C198.508 424.012 198.615 424.671 198.615 425.437V426.067H191.461V424.681H196.643C196.639 424.287 196.554 423.937 196.387 423.63C196.221 423.319 195.988 423.075 195.688 422.897C195.393 422.719 195.048 422.63 194.654 422.63C194.234 422.63 193.865 422.732 193.546 422.937C193.228 423.137 192.98 423.402 192.802 423.732C192.628 424.058 192.539 424.416 192.535 424.806V426.016C192.535 426.524 192.628 426.959 192.813 427.323C192.999 427.683 193.258 427.959 193.592 428.152C193.925 428.342 194.315 428.437 194.762 428.437C195.062 428.437 195.332 428.395 195.575 428.312C195.817 428.224 196.027 428.098 196.205 427.931C196.383 427.764 196.518 427.558 196.609 427.312L198.529 427.527C198.408 428.035 198.177 428.478 197.836 428.857C197.499 429.232 197.067 429.524 196.541 429.732C196.014 429.937 195.412 430.039 194.734 430.039ZM203.634 430.022C202.948 430.022 202.334 429.846 201.793 429.493C201.251 429.141 200.823 428.63 200.509 427.959C200.194 427.289 200.037 426.474 200.037 425.516C200.037 424.546 200.196 423.728 200.514 423.062C200.836 422.391 201.27 421.885 201.815 421.545C202.361 421.2 202.969 421.027 203.639 421.027C204.151 421.027 204.571 421.115 204.901 421.289C205.23 421.459 205.492 421.666 205.685 421.908C205.878 422.147 206.028 422.372 206.134 422.584H206.219V418.232H208.281V429.868H206.259V428.493H206.134C206.028 428.706 205.874 428.931 205.673 429.17C205.473 429.404 205.207 429.605 204.878 429.772C204.548 429.938 204.134 430.022 203.634 430.022ZM204.207 428.334C204.643 428.334 205.014 428.217 205.321 427.982C205.628 427.743 205.861 427.412 206.02 426.988C206.179 426.563 206.259 426.069 206.259 425.505C206.259 424.94 206.179 424.45 206.02 424.033C205.865 423.617 205.634 423.293 205.327 423.062C205.024 422.831 204.651 422.715 204.207 422.715C203.749 422.715 203.367 422.834 203.06 423.073C202.753 423.312 202.522 423.641 202.367 424.062C202.211 424.482 202.134 424.963 202.134 425.505C202.134 426.05 202.211 426.537 202.367 426.965C202.526 427.389 202.759 427.724 203.065 427.971C203.376 428.213 203.757 428.334 204.207 428.334Z" fill="white"/>
<path d="M138.335 361.517C137.4 361.517 136.597 361.28 135.926 360.806C135.259 360.329 134.746 359.642 134.386 358.744C134.03 357.842 133.852 356.757 133.852 355.488C133.856 354.219 134.036 353.14 134.392 352.249C134.752 351.356 135.265 350.674 135.932 350.204C136.602 349.734 137.403 349.499 138.335 349.499C139.267 349.499 140.068 349.734 140.739 350.204C141.409 350.674 141.922 351.356 142.278 352.249C142.638 353.143 142.818 354.223 142.818 355.488C142.818 356.761 142.638 357.848 142.278 358.749C141.922 359.647 141.409 360.333 140.739 360.806C140.072 361.28 139.271 361.517 138.335 361.517ZM138.335 359.738C139.063 359.738 139.636 359.38 140.057 358.664C140.481 357.945 140.693 356.886 140.693 355.488C140.693 354.564 140.597 353.787 140.403 353.159C140.21 352.53 139.938 352.056 139.585 351.738C139.233 351.416 138.816 351.255 138.335 351.255C137.612 351.255 137.04 351.615 136.619 352.335C136.199 353.051 135.987 354.102 135.983 355.488C135.979 356.416 136.072 357.196 136.261 357.829C136.455 358.462 136.727 358.939 137.08 359.261C137.432 359.579 137.85 359.738 138.335 359.738ZM144.86 361.295L149.809 351.499V351.42H144.064V349.659H151.991V351.46L147.047 361.295H144.86ZM154.608 359.897C154.263 359.897 153.968 359.776 153.721 359.534C153.475 359.287 153.354 358.992 153.358 358.647C153.354 358.306 153.475 358.015 153.721 357.772C153.968 357.53 154.263 357.409 154.608 357.409C154.941 357.409 155.231 357.53 155.477 357.772C155.727 358.015 155.854 358.306 155.858 358.647C155.854 358.878 155.793 359.088 155.676 359.278C155.562 359.467 155.411 359.619 155.221 359.732C155.036 359.842 154.831 359.897 154.608 359.897ZM154.608 354.13C154.263 354.13 153.968 354.009 153.721 353.767C153.475 353.52 153.354 353.225 153.358 352.88C153.354 352.539 153.475 352.248 153.721 352.005C153.968 351.759 154.263 351.636 154.608 351.636C154.941 351.636 155.231 351.759 155.477 352.005C155.727 352.248 155.854 352.539 155.858 352.88C155.854 353.107 155.793 353.316 155.676 353.505C155.562 353.695 155.411 353.846 155.221 353.96C155.036 354.073 154.831 354.13 154.608 354.13ZM162.044 361.454C161.287 361.454 160.609 361.312 160.01 361.028C159.412 360.74 158.936 360.346 158.584 359.846C158.236 359.346 158.05 358.774 158.027 358.13H160.073C160.111 358.607 160.317 358.998 160.692 359.301C161.067 359.6 161.518 359.749 162.044 359.749C162.457 359.749 162.825 359.655 163.147 359.465C163.469 359.276 163.722 359.013 163.908 358.676C164.094 358.338 164.184 357.954 164.181 357.522C164.184 357.083 164.092 356.693 163.902 356.352C163.713 356.011 163.453 355.744 163.124 355.551C162.794 355.354 162.416 355.255 161.987 355.255C161.639 355.251 161.296 355.316 160.959 355.448C160.622 355.581 160.355 355.755 160.158 355.971L158.255 355.659L158.862 349.659H165.612V351.42H160.607L160.272 354.505H160.34C160.556 354.251 160.861 354.041 161.255 353.874C161.648 353.704 162.08 353.619 162.55 353.619C163.255 353.619 163.883 353.785 164.436 354.119C164.989 354.448 165.425 354.903 165.743 355.482C166.061 356.062 166.22 356.725 166.22 357.471C166.22 358.24 166.042 358.926 165.686 359.528C165.334 360.126 164.844 360.598 164.215 360.943C163.59 361.284 162.866 361.454 162.044 361.454ZM172.426 361.454C171.869 361.45 171.325 361.354 170.795 361.164C170.265 360.971 169.787 360.659 169.363 360.227C168.939 359.791 168.602 359.213 168.352 358.494C168.102 357.77 167.979 356.874 167.982 355.806C167.982 354.81 168.088 353.922 168.301 353.142C168.513 352.361 168.818 351.702 169.215 351.164C169.613 350.623 170.092 350.21 170.653 349.926C171.217 349.642 171.848 349.499 172.545 349.499C173.276 349.499 173.924 349.643 174.488 349.931C175.056 350.219 175.515 350.613 175.863 351.113C176.212 351.609 176.427 352.17 176.511 352.795H174.437C174.331 352.348 174.113 351.992 173.784 351.727C173.458 351.458 173.045 351.323 172.545 351.323C171.738 351.323 171.117 351.674 170.681 352.374C170.249 353.075 170.032 354.037 170.028 355.261H170.107C170.293 354.927 170.534 354.642 170.829 354.403C171.124 354.164 171.458 353.981 171.829 353.852C172.204 353.719 172.6 353.653 173.016 353.653C173.698 353.653 174.31 353.816 174.852 354.142C175.397 354.467 175.829 354.916 176.147 355.488C176.465 356.056 176.623 356.708 176.619 357.443C176.623 358.208 176.448 358.895 176.096 359.505C175.744 360.111 175.253 360.588 174.624 360.937C173.996 361.285 173.263 361.458 172.426 361.454ZM172.414 359.749C172.827 359.749 173.196 359.649 173.522 359.448C173.848 359.248 174.105 358.977 174.295 358.636C174.484 358.295 174.577 357.912 174.573 357.488C174.577 357.071 174.486 356.695 174.301 356.357C174.119 356.02 173.867 355.753 173.545 355.556C173.223 355.359 172.855 355.261 172.443 355.261C172.136 355.261 171.85 355.32 171.585 355.437C171.319 355.554 171.088 355.717 170.891 355.926C170.694 356.13 170.539 356.369 170.426 356.642C170.316 356.91 170.259 357.198 170.255 357.505C170.259 357.91 170.354 358.284 170.539 358.624C170.725 358.965 170.98 359.238 171.306 359.443C171.632 359.647 172.001 359.749 172.414 359.749ZM179.869 359.897C179.525 359.897 179.229 359.776 178.983 359.534C178.737 359.287 178.616 358.992 178.619 358.647C178.616 358.306 178.737 358.015 178.983 357.772C179.229 357.53 179.525 357.409 179.869 357.409C180.203 357.409 180.492 357.53 180.739 357.772C180.989 358.015 181.116 358.306 181.119 358.647C181.116 358.878 181.055 359.088 180.937 359.278C180.824 359.467 180.672 359.619 180.483 359.732C180.297 359.842 180.093 359.897 179.869 359.897ZM179.869 354.13C179.525 354.13 179.229 354.009 178.983 353.767C178.737 353.52 178.616 353.225 178.619 352.88C178.616 352.539 178.737 352.248 178.983 352.005C179.229 351.759 179.525 351.636 179.869 351.636C180.203 351.636 180.492 351.759 180.739 352.005C180.989 352.248 181.116 352.539 181.119 352.88C181.116 353.107 181.055 353.316 180.937 353.505C180.824 353.695 180.672 353.846 180.483 353.96C180.297 354.073 180.093 354.13 179.869 354.13ZM187.562 361.517C186.626 361.517 185.823 361.28 185.153 360.806C184.486 360.329 183.973 359.642 183.613 358.744C183.257 357.842 183.079 356.757 183.079 355.488C183.082 354.219 183.262 353.14 183.618 352.249C183.978 351.356 184.492 350.674 185.158 350.204C185.829 349.734 186.63 349.499 187.562 349.499C188.493 349.499 189.295 349.734 189.965 350.204C190.635 350.674 191.149 351.356 191.505 352.249C191.865 353.143 192.045 354.223 192.045 355.488C192.045 356.761 191.865 357.848 191.505 358.749C191.149 359.647 190.635 360.333 189.965 360.806C189.298 361.28 188.497 361.517 187.562 361.517ZM187.562 359.738C188.289 359.738 188.863 359.38 189.283 358.664C189.707 357.945 189.92 356.886 189.92 355.488C189.92 354.564 189.823 353.787 189.63 353.159C189.437 352.53 189.164 352.056 188.812 351.738C188.459 351.416 188.043 351.255 187.562 351.255C186.838 351.255 186.266 351.615 185.846 352.335C185.425 353.051 185.213 354.102 185.209 355.488C185.206 356.416 185.298 357.196 185.488 357.829C185.681 358.462 185.954 358.939 186.306 359.261C186.658 359.579 187.077 359.738 187.562 359.738ZM193.973 361.295V359.772L198.012 355.812C198.399 355.422 198.721 355.075 198.978 354.772C199.236 354.469 199.429 354.176 199.558 353.892C199.687 353.607 199.751 353.304 199.751 352.982C199.751 352.615 199.668 352.301 199.501 352.039C199.334 351.774 199.105 351.57 198.814 351.426C198.522 351.282 198.191 351.21 197.819 351.21C197.437 351.21 197.101 351.289 196.814 351.448C196.526 351.604 196.302 351.825 196.143 352.113C195.988 352.401 195.91 352.744 195.91 353.142H193.905C193.905 352.403 194.073 351.761 194.41 351.215C194.747 350.67 195.211 350.248 195.802 349.948C196.397 349.649 197.079 349.499 197.848 349.499C198.628 349.499 199.314 349.645 199.905 349.937C200.495 350.229 200.954 350.628 201.28 351.136C201.609 351.643 201.774 352.223 201.774 352.874C201.774 353.31 201.691 353.738 201.524 354.159C201.357 354.579 201.064 355.045 200.643 355.556C200.226 356.068 199.641 356.687 198.887 357.414L196.882 359.454V359.534H201.95V361.295H193.973Z" fill="#F8F8F8"/>
<path d="M-1 668.271C-1 650.448 13.448 636 31.2705 636H301.536C319.359 636 333.807 650.448 333.807 668.271V723.13H-1V668.271Z" fill="#0BAB7E"/>
<rect x="25.0781" y="657.186" width="282.367" height="45.1787" rx="12.1014" fill="white"/>
<path d="M249.478 676.878V688.514H247.37V678.929H247.302L244.58 680.668V678.736L247.472 676.878H249.478ZM252.473 688.514V686.991L256.513 683.031C256.899 682.641 257.221 682.294 257.479 681.991C257.736 681.688 257.929 681.395 258.058 681.111C258.187 680.827 258.251 680.524 258.251 680.202C258.251 679.834 258.168 679.52 258.001 679.258C257.835 678.993 257.606 678.789 257.314 678.645C257.022 678.501 256.691 678.429 256.32 678.429C255.937 678.429 255.602 678.508 255.314 678.668C255.026 678.823 254.802 679.044 254.643 679.332C254.488 679.62 254.41 679.963 254.41 680.361H252.405C252.405 679.622 252.573 678.98 252.91 678.435C253.248 677.889 253.712 677.467 254.302 677.168C254.897 676.868 255.579 676.719 256.348 676.719C257.128 676.719 257.814 676.865 258.405 677.156C258.996 677.448 259.454 677.847 259.78 678.355C260.109 678.863 260.274 679.442 260.274 680.094C260.274 680.529 260.191 680.957 260.024 681.378C259.857 681.798 259.564 682.264 259.143 682.776C258.727 683.287 258.141 683.906 257.388 684.633L255.382 686.673V686.753H260.45V688.514H252.473ZM266.627 688.673C265.809 688.673 265.081 688.533 264.445 688.253C263.813 687.972 263.313 687.582 262.945 687.082C262.578 686.582 262.383 686.005 262.36 685.349H264.496C264.515 685.664 264.619 685.938 264.809 686.173C264.998 686.404 265.25 686.584 265.564 686.713C265.879 686.842 266.231 686.906 266.621 686.906C267.038 686.906 267.407 686.834 267.729 686.69C268.051 686.543 268.303 686.338 268.485 686.077C268.667 685.815 268.756 685.514 268.752 685.173C268.756 684.821 268.665 684.51 268.479 684.241C268.294 683.972 268.025 683.762 267.672 683.611C267.324 683.459 266.903 683.383 266.411 683.383H265.383V681.758H266.411C266.816 681.758 267.17 681.688 267.473 681.548C267.78 681.408 268.021 681.211 268.195 680.957C268.369 680.7 268.455 680.402 268.451 680.065C268.455 679.736 268.381 679.45 268.229 679.207C268.081 678.961 267.871 678.77 267.598 678.633C267.33 678.497 267.013 678.429 266.65 678.429C266.294 678.429 265.964 678.493 265.661 678.622C265.358 678.751 265.114 678.935 264.928 679.173C264.742 679.408 264.644 679.688 264.633 680.014H262.604C262.619 679.363 262.807 678.791 263.167 678.298C263.53 677.802 264.015 677.416 264.621 677.139C265.227 676.859 265.907 676.719 266.661 676.719C267.438 676.719 268.112 676.865 268.684 677.156C269.259 677.444 269.705 677.832 270.019 678.321C270.333 678.81 270.491 679.349 270.491 679.94C270.494 680.596 270.301 681.145 269.911 681.588C269.525 682.031 269.017 682.321 268.388 682.457V682.548C269.206 682.662 269.833 682.965 270.269 683.457C270.708 683.946 270.926 684.554 270.922 685.281C270.922 685.933 270.737 686.516 270.366 687.031C269.998 687.543 269.491 687.944 268.843 688.236C268.199 688.527 267.46 688.673 266.627 688.673ZM272.936 688.514V679.787H274.902V681.27H275.004C275.186 680.77 275.487 680.38 275.907 680.099C276.328 679.815 276.83 679.673 277.413 679.673C278.004 679.673 278.502 679.817 278.907 680.105C279.316 680.389 279.604 680.777 279.771 681.27H279.862C280.055 680.785 280.381 680.399 280.839 680.111C281.301 679.819 281.849 679.673 282.481 679.673C283.284 679.673 283.939 679.927 284.447 680.435C284.955 680.942 285.208 681.683 285.208 682.656V688.514H283.146V682.974C283.146 682.433 283.002 682.037 282.714 681.787C282.426 681.533 282.074 681.406 281.657 681.406C281.161 681.406 280.773 681.562 280.493 681.872C280.216 682.179 280.078 682.579 280.078 683.071V688.514H278.061V682.889C278.061 682.438 277.924 682.079 277.652 681.81C277.383 681.541 277.03 681.406 276.595 681.406C276.299 681.406 276.03 681.482 275.788 681.633C275.546 681.781 275.352 681.991 275.208 682.264C275.064 682.533 274.993 682.847 274.993 683.207V688.514H272.936ZM294.233 682.094L292.358 682.298C292.305 682.109 292.212 681.931 292.08 681.764C291.951 681.597 291.777 681.463 291.557 681.361C291.337 681.258 291.068 681.207 290.75 681.207C290.322 681.207 289.962 681.3 289.671 681.486C289.383 681.671 289.241 681.912 289.245 682.207C289.241 682.461 289.334 682.668 289.523 682.827C289.716 682.986 290.034 683.116 290.477 683.219L291.966 683.537C292.792 683.715 293.405 683.997 293.807 684.383C294.212 684.77 294.417 685.276 294.421 685.901C294.417 686.45 294.256 686.935 293.938 687.355C293.623 687.772 293.186 688.097 292.625 688.332C292.065 688.567 291.421 688.685 290.693 688.685C289.625 688.685 288.765 688.461 288.114 688.014C287.462 687.563 287.074 686.937 286.949 686.133L288.955 685.94C289.046 686.334 289.239 686.632 289.534 686.832C289.83 687.033 290.214 687.133 290.688 687.133C291.176 687.133 291.568 687.033 291.864 686.832C292.163 686.632 292.313 686.383 292.313 686.088C292.313 685.838 292.216 685.632 292.023 685.469C291.834 685.306 291.538 685.181 291.137 685.094L289.648 684.781C288.811 684.607 288.191 684.313 287.79 683.901C287.388 683.484 287.19 682.957 287.193 682.321C287.19 681.783 287.335 681.317 287.631 680.923C287.93 680.526 288.345 680.219 288.875 680.003C289.409 679.783 290.025 679.673 290.722 679.673C291.745 679.673 292.549 679.891 293.137 680.327C293.727 680.762 294.093 681.351 294.233 682.094Z" fill="black"/>
<rect x="226.769" y="680.921" width="2.67506" height="4.45843" fill="#0BAB7E"/>
<rect x="233.902" y="677.355" width="2.67506" height="8.02517" fill="#0BAB7E"/>
<rect x="230.336" y="679.138" width="2.67506" height="6.2418" fill="#0BAB7E"/>
<rect x="237.469" y="675.911" width="2.67506" height="9.80854" fill="#D9D9D9"/>
<rect x="241.036" y="674.128" width="2.67506" height="11.5919" fill="#D9D9D9"/>
<path d="M84.5755 692.689H88.3355V694.161H82.7515V683.041H84.5755V692.689ZM90.8293 684.177C90.4986 684.177 90.2213 684.065 89.9973 683.841C89.7733 683.617 89.6613 683.34 89.6613 683.009C89.6613 682.679 89.7733 682.401 89.9973 682.177C90.2213 681.953 90.4986 681.841 90.8293 681.841C91.1493 681.841 91.4213 681.953 91.6453 682.177C91.8693 682.401 91.9813 682.679 91.9813 683.009C91.9813 683.34 91.8693 683.617 91.6453 683.841C91.4213 684.065 91.1493 684.177 90.8293 684.177ZM91.7253 685.345V694.161H89.9013V685.345H91.7253ZM104.832 685.201C105.526 685.201 106.144 685.345 106.688 685.633C107.243 685.921 107.675 686.348 107.984 686.913C108.304 687.479 108.464 688.161 108.464 688.961V694.161H106.656V689.233C106.656 688.444 106.459 687.841 106.064 687.425C105.67 686.999 105.131 686.785 104.448 686.785C103.766 686.785 103.222 686.999 102.816 687.425C102.422 687.841 102.224 688.444 102.224 689.233V694.161H100.416V689.233C100.416 688.444 100.219 687.841 99.8243 687.425C99.4297 686.999 98.891 686.785 98.2083 686.785C97.5257 686.785 96.9817 686.999 96.5763 687.425C96.1817 687.841 95.9843 688.444 95.9843 689.233V694.161H94.1603V685.345H95.9843V686.353C96.283 685.991 96.6617 685.708 97.1203 685.505C97.579 685.303 98.0697 685.201 98.5923 685.201C99.2963 685.201 99.9257 685.351 100.48 685.649C101.035 685.948 101.462 686.38 101.76 686.945C102.027 686.412 102.443 685.991 103.008 685.681C103.574 685.361 104.182 685.201 104.832 685.201ZM111.754 684.177C111.423 684.177 111.146 684.065 110.922 683.841C110.698 683.617 110.586 683.34 110.586 683.009C110.586 682.679 110.698 682.401 110.922 682.177C111.146 681.953 111.423 681.841 111.754 681.841C112.074 681.841 112.346 681.953 112.57 682.177C112.794 682.401 112.906 682.679 112.906 683.009C112.906 683.34 112.794 683.617 112.57 683.841C112.346 684.065 112.074 684.177 111.754 684.177ZM112.65 685.345V694.161H110.826V685.345H112.65ZM117.213 686.833V691.713C117.213 692.044 117.287 692.284 117.437 692.433C117.597 692.572 117.863 692.641 118.237 692.641H119.357V694.161H117.917C117.095 694.161 116.466 693.969 116.029 693.585C115.591 693.201 115.373 692.577 115.373 691.713V686.833H114.333V685.345H115.373V683.153H117.213V685.345H119.357V686.833H117.213ZM129.158 689.537C129.158 689.868 129.137 690.167 129.094 690.433H122.358C122.412 691.137 122.673 691.703 123.142 692.129C123.612 692.556 124.188 692.769 124.87 692.769C125.852 692.769 126.545 692.359 126.95 691.537H128.918C128.652 692.348 128.166 693.015 127.462 693.537C126.769 694.049 125.905 694.305 124.87 694.305C124.028 694.305 123.27 694.119 122.598 693.745C121.937 693.361 121.414 692.828 121.03 692.145C120.657 691.452 120.47 690.652 120.47 689.745C120.47 688.839 120.652 688.044 121.014 687.361C121.388 686.668 121.905 686.135 122.566 685.761C123.238 685.388 124.006 685.201 124.87 685.201C125.702 685.201 126.444 685.383 127.094 685.745C127.745 686.108 128.252 686.62 128.614 687.281C128.977 687.932 129.158 688.684 129.158 689.537ZM127.254 688.961C127.244 688.289 127.004 687.751 126.534 687.345C126.065 686.94 125.484 686.737 124.79 686.737C124.161 686.737 123.622 686.94 123.174 687.345C122.726 687.74 122.46 688.279 122.374 688.961H127.254ZM130.386 689.713C130.386 688.828 130.567 688.044 130.93 687.361C131.303 686.679 131.804 686.151 132.434 685.777C133.074 685.393 133.783 685.201 134.562 685.201C135.138 685.201 135.703 685.329 136.258 685.585C136.823 685.831 137.271 686.161 137.602 686.577V682.321H139.442V694.161H137.602V692.833C137.303 693.26 136.887 693.612 136.354 693.889C135.831 694.167 135.228 694.305 134.546 694.305C133.778 694.305 133.074 694.113 132.434 693.729C131.804 693.335 131.303 692.791 130.93 692.097C130.567 691.393 130.386 690.599 130.386 689.713ZM137.602 689.745C137.602 689.137 137.474 688.609 137.218 688.161C136.972 687.713 136.647 687.372 136.242 687.137C135.836 686.903 135.399 686.785 134.93 686.785C134.46 686.785 134.023 686.903 133.618 687.137C133.212 687.361 132.882 687.697 132.626 688.145C132.38 688.583 132.258 689.105 132.258 689.713C132.258 690.321 132.38 690.855 132.626 691.313C132.882 691.772 133.212 692.124 133.618 692.369C134.034 692.604 134.471 692.721 134.93 692.721C135.399 692.721 135.836 692.604 136.242 692.369C136.647 692.135 136.972 691.793 137.218 691.345C137.474 690.887 137.602 690.353 137.602 689.745ZM149.274 694.305C148.581 694.305 147.957 694.183 147.402 693.937C146.858 693.681 146.426 693.34 146.106 692.913C145.786 692.476 145.616 691.991 145.594 691.457H147.482C147.514 691.831 147.69 692.145 148.01 692.401C148.341 692.647 148.752 692.769 149.242 692.769C149.754 692.769 150.149 692.673 150.426 692.481C150.714 692.279 150.858 692.023 150.858 691.713C150.858 691.383 150.698 691.137 150.378 690.977C150.069 690.817 149.573 690.641 148.89 690.449C148.229 690.268 147.69 690.092 147.274 689.921C146.858 689.751 146.496 689.489 146.186 689.137C145.888 688.785 145.738 688.321 145.738 687.745C145.738 687.276 145.877 686.849 146.154 686.465C146.432 686.071 146.826 685.761 147.338 685.537C147.861 685.313 148.458 685.201 149.13 685.201C150.133 685.201 150.938 685.457 151.546 685.969C152.165 686.471 152.496 687.159 152.538 688.033H150.714C150.682 687.639 150.522 687.324 150.234 687.089C149.946 686.855 149.557 686.737 149.066 686.737C148.586 686.737 148.218 686.828 147.962 687.009C147.706 687.191 147.578 687.431 147.578 687.729C147.578 687.964 147.664 688.161 147.834 688.321C148.005 688.481 148.213 688.609 148.458 688.705C148.704 688.791 149.066 688.903 149.546 689.041C150.186 689.212 150.709 689.388 151.114 689.569C151.53 689.74 151.888 689.996 152.186 690.337C152.485 690.679 152.64 691.132 152.65 691.697C152.65 692.199 152.512 692.647 152.234 693.041C151.957 693.436 151.562 693.745 151.05 693.969C150.549 694.193 149.957 694.305 149.274 694.305ZM156.485 686.641C156.795 686.236 157.216 685.895 157.749 685.617C158.283 685.34 158.885 685.201 159.557 685.201C160.325 685.201 161.024 685.393 161.653 685.777C162.293 686.151 162.795 686.679 163.157 687.361C163.52 688.044 163.701 688.828 163.701 689.713C163.701 690.599 163.52 691.393 163.157 692.097C162.795 692.791 162.293 693.335 161.653 693.729C161.024 694.113 160.325 694.305 159.557 694.305C158.885 694.305 158.288 694.172 157.765 693.905C157.243 693.628 156.816 693.287 156.485 692.881V698.353H154.661V685.345H156.485V686.641ZM161.845 689.713C161.845 689.105 161.717 688.583 161.461 688.145C161.216 687.697 160.885 687.361 160.469 687.137C160.064 686.903 159.627 686.785 159.157 686.785C158.699 686.785 158.261 686.903 157.845 687.137C157.44 687.372 157.109 687.713 156.853 688.161C156.608 688.609 156.485 689.137 156.485 689.745C156.485 690.353 156.608 690.887 156.853 691.345C157.109 691.793 157.44 692.135 157.845 692.369C158.261 692.604 158.699 692.721 159.157 692.721C159.627 692.721 160.064 692.604 160.469 692.369C160.885 692.124 161.216 691.772 161.461 691.313C161.717 690.855 161.845 690.321 161.845 689.713ZM173.626 689.537C173.626 689.868 173.604 690.167 173.562 690.433H166.826C166.879 691.137 167.14 691.703 167.61 692.129C168.079 692.556 168.655 692.769 169.338 692.769C170.319 692.769 171.012 692.359 171.418 691.537H173.386C173.119 692.348 172.634 693.015 171.93 693.537C171.236 694.049 170.372 694.305 169.338 694.305C168.495 694.305 167.738 694.119 167.066 693.745C166.404 693.361 165.882 692.828 165.498 692.145C165.124 691.452 164.938 690.652 164.938 689.745C164.938 688.839 165.119 688.044 165.482 687.361C165.855 686.668 166.372 686.135 167.034 685.761C167.706 685.388 168.474 685.201 169.338 685.201C170.17 685.201 170.911 685.383 171.562 685.745C172.212 686.108 172.719 686.62 173.082 687.281C173.444 687.932 173.626 688.684 173.626 689.537ZM171.722 688.961C171.711 688.289 171.471 687.751 171.002 687.345C170.532 686.94 169.951 686.737 169.258 686.737C168.628 686.737 168.09 686.94 167.642 687.345C167.194 687.74 166.927 688.279 166.842 688.961H171.722ZM183.541 689.537C183.541 689.868 183.52 690.167 183.477 690.433H176.741C176.794 691.137 177.056 691.703 177.525 692.129C177.994 692.556 178.57 692.769 179.253 692.769C180.234 692.769 180.928 692.359 181.333 691.537H183.301C183.034 692.348 182.549 693.015 181.845 693.537C181.152 694.049 180.288 694.305 179.253 694.305C178.41 694.305 177.653 694.119 176.981 693.745C176.32 693.361 175.797 692.828 175.413 692.145C175.04 691.452 174.853 690.652 174.853 689.745C174.853 688.839 175.034 688.044 175.397 687.361C175.77 686.668 176.288 686.135 176.949 685.761C177.621 685.388 178.389 685.201 179.253 685.201C180.085 685.201 180.826 685.383 181.477 685.745C182.128 686.108 182.634 686.62 182.997 687.281C183.36 687.932 183.541 688.684 183.541 689.537ZM181.637 688.961C181.626 688.289 181.386 687.751 180.917 687.345C180.448 686.94 179.866 686.737 179.173 686.737C178.544 686.737 178.005 686.94 177.557 687.345C177.109 687.74 176.842 688.279 176.757 688.961H181.637ZM184.768 689.713C184.768 688.828 184.95 688.044 185.312 687.361C185.686 686.679 186.187 686.151 186.816 685.777C187.456 685.393 188.166 685.201 188.944 685.201C189.52 685.201 190.086 685.329 190.64 685.585C191.206 685.831 191.654 686.161 191.984 686.577V682.321H193.824V694.161H191.984V692.833C191.686 693.26 191.27 693.612 190.736 693.889C190.214 694.167 189.611 694.305 188.928 694.305C188.16 694.305 187.456 694.113 186.816 693.729C186.187 693.335 185.686 692.791 185.312 692.097C184.95 691.393 184.768 690.599 184.768 689.713ZM191.984 689.745C191.984 689.137 191.856 688.609 191.6 688.161C191.355 687.713 191.03 687.372 190.624 687.137C190.219 686.903 189.782 686.785 189.312 686.785C188.843 686.785 188.406 686.903 188 687.137C187.595 687.361 187.264 687.697 187.008 688.145C186.763 688.583 186.64 689.105 186.64 689.713C186.64 690.321 186.763 690.855 187.008 691.313C187.264 691.772 187.595 692.124 188 692.369C188.416 692.604 188.854 692.721 189.312 692.721C189.782 692.721 190.219 692.604 190.624 692.369C191.03 692.135 191.355 691.793 191.6 691.345C191.856 690.887 191.984 690.353 191.984 689.745Z" fill="black"/>
<path d="M82.6993 681.253V669.617H90.1538V671.384H84.8072V674.543H89.6425V676.31H84.8072V681.253H82.6993ZM94.4569 681.429C93.9039 681.429 93.4058 681.331 92.9626 681.134C92.5232 680.933 92.1747 680.638 91.9172 680.247C91.6634 679.857 91.5365 679.376 91.5365 678.804C91.5365 678.312 91.6274 677.905 91.8092 677.583C91.991 677.261 92.2391 677.003 92.5535 676.81C92.8679 676.617 93.2221 676.471 93.616 676.372C94.0138 676.27 94.4247 676.196 94.849 676.151C95.3603 676.098 95.7751 676.051 96.0933 676.009C96.4115 675.963 96.6425 675.895 96.7865 675.804C96.9342 675.71 97.0081 675.564 97.0081 675.367V675.333C97.0081 674.905 96.8812 674.573 96.6274 674.338C96.3736 674.104 96.0081 673.986 95.5308 673.986C95.027 673.986 94.6274 674.096 94.3319 674.316C94.0403 674.535 93.8433 674.795 93.741 675.094L91.8206 674.821C91.9721 674.291 92.2221 673.848 92.5706 673.492C92.9191 673.132 93.3452 672.863 93.849 672.685C94.3528 672.503 94.9096 672.412 95.5194 672.412C95.9399 672.412 96.3585 672.462 96.7751 672.56C97.1918 672.658 97.5725 672.821 97.9172 673.049C98.2619 673.272 98.5384 673.577 98.7467 673.963C98.9588 674.35 99.0649 674.833 99.0649 675.412V681.253H97.0876V680.054H97.0194C96.8944 680.297 96.7183 680.524 96.491 680.736C96.2675 680.944 95.9853 681.113 95.6444 681.242C95.3073 681.367 94.9115 681.429 94.4569 681.429ZM94.991 679.918C95.4039 679.918 95.7619 679.837 96.0649 679.674C96.3679 679.507 96.6009 679.287 96.7638 679.015C96.9304 678.742 97.0138 678.444 97.0138 678.122V677.094C96.9494 677.147 96.8395 677.196 96.6842 677.242C96.5327 677.287 96.3622 677.327 96.1728 677.361C95.9835 677.395 95.796 677.426 95.6103 677.452C95.4247 677.479 95.2638 677.501 95.1274 677.52C94.8206 677.562 94.546 677.63 94.3035 677.725C94.0611 677.819 93.8698 677.952 93.7297 678.122C93.5895 678.289 93.5194 678.505 93.5194 678.77C93.5194 679.149 93.6577 679.435 93.9342 679.628C94.2107 679.821 94.563 679.918 94.991 679.918ZM108.071 674.833L106.196 675.037C106.143 674.848 106.05 674.67 105.918 674.503C105.789 674.337 105.615 674.202 105.395 674.1C105.175 673.997 104.906 673.946 104.588 673.946C104.16 673.946 103.8 674.039 103.509 674.225C103.221 674.41 103.079 674.651 103.083 674.946C103.079 675.2 103.172 675.407 103.361 675.566C103.554 675.725 103.872 675.855 104.315 675.958L105.804 676.276C106.63 676.454 107.243 676.736 107.645 677.122C108.05 677.509 108.255 678.015 108.259 678.64C108.255 679.189 108.094 679.674 107.776 680.094C107.461 680.511 107.024 680.837 106.463 681.071C105.903 681.306 105.259 681.424 104.531 681.424C103.463 681.424 102.603 681.2 101.952 680.753C101.3 680.302 100.912 679.676 100.787 678.872L102.793 678.679C102.884 679.073 103.077 679.371 103.372 679.571C103.668 679.772 104.052 679.872 104.526 679.872C105.014 679.872 105.406 679.772 105.702 679.571C106.001 679.371 106.151 679.122 106.151 678.827C106.151 678.577 106.054 678.371 105.861 678.208C105.672 678.045 105.376 677.92 104.975 677.833L103.486 677.52C102.649 677.346 102.029 677.052 101.628 676.64C101.226 676.223 101.028 675.696 101.031 675.06C101.028 674.522 101.173 674.056 101.469 673.662C101.768 673.265 102.183 672.958 102.713 672.742C103.247 672.522 103.863 672.412 104.56 672.412C105.583 672.412 106.387 672.63 106.975 673.066C107.565 673.501 107.931 674.09 108.071 674.833ZM114.353 672.526V674.117H109.336V672.526H114.353ZM110.575 670.435H112.631V678.628C112.631 678.905 112.673 679.117 112.756 679.265C112.843 679.408 112.957 679.507 113.097 679.56C113.237 679.613 113.393 679.64 113.563 679.64C113.692 679.64 113.809 679.63 113.915 679.611C114.025 679.592 114.109 679.575 114.165 679.56L114.512 681.168C114.402 681.206 114.245 681.247 114.04 681.293C113.84 681.338 113.593 681.365 113.302 681.372C112.787 681.388 112.323 681.31 111.91 681.14C111.497 680.965 111.169 680.696 110.927 680.333C110.688 679.969 110.571 679.515 110.575 678.969V670.435ZM119.883 681.424C119.008 681.424 118.253 681.242 117.616 680.878C116.984 680.511 116.497 679.992 116.156 679.321C115.815 678.647 115.645 677.854 115.645 676.941C115.645 676.043 115.815 675.255 116.156 674.577C116.501 673.895 116.982 673.365 117.599 672.986C118.217 672.604 118.942 672.412 119.775 672.412C120.313 672.412 120.821 672.499 121.298 672.674C121.779 672.844 122.203 673.109 122.571 673.469C122.942 673.829 123.234 674.287 123.446 674.844C123.658 675.397 123.764 676.056 123.764 676.821V677.452H116.611V676.066H121.792C121.789 675.672 121.703 675.321 121.537 675.015C121.37 674.704 121.137 674.46 120.838 674.282C120.542 674.104 120.198 674.015 119.804 674.015C119.383 674.015 119.014 674.117 118.696 674.321C118.378 674.522 118.13 674.787 117.952 675.117C117.777 675.443 117.688 675.801 117.684 676.191V677.401C117.684 677.908 117.777 678.344 117.963 678.708C118.149 679.068 118.408 679.344 118.741 679.537C119.075 679.727 119.465 679.821 119.912 679.821C120.211 679.821 120.482 679.78 120.724 679.696C120.967 679.609 121.177 679.482 121.355 679.316C121.533 679.149 121.667 678.943 121.758 678.696L123.679 678.912C123.558 679.42 123.327 679.863 122.986 680.242C122.649 680.617 122.217 680.908 121.69 681.117C121.164 681.321 120.561 681.424 119.883 681.424ZM132.442 674.833L130.567 675.037C130.514 674.848 130.421 674.67 130.289 674.503C130.16 674.337 129.986 674.202 129.766 674.1C129.546 673.997 129.277 673.946 128.959 673.946C128.531 673.946 128.171 674.039 127.88 674.225C127.592 674.41 127.45 674.651 127.454 674.946C127.45 675.2 127.543 675.407 127.732 675.566C127.925 675.725 128.243 675.855 128.686 675.958L130.175 676.276C131.001 676.454 131.614 676.736 132.016 677.122C132.421 677.509 132.626 678.015 132.63 678.64C132.626 679.189 132.465 679.674 132.147 680.094C131.832 680.511 131.395 680.837 130.834 681.071C130.274 681.306 129.63 681.424 128.902 681.424C127.834 681.424 126.974 681.2 126.323 680.753C125.671 680.302 125.283 679.676 125.158 678.872L127.164 678.679C127.255 679.073 127.448 679.371 127.743 679.571C128.039 679.772 128.423 679.872 128.897 679.872C129.385 679.872 129.777 679.772 130.073 679.571C130.372 679.371 130.522 679.122 130.522 678.827C130.522 678.577 130.425 678.371 130.232 678.208C130.043 678.045 129.747 677.92 129.346 677.833L127.857 677.52C127.02 677.346 126.4 677.052 125.999 676.64C125.597 676.223 125.399 675.696 125.402 675.06C125.399 674.522 125.544 674.056 125.84 673.662C126.139 673.265 126.554 672.958 127.084 672.742C127.618 672.522 128.234 672.412 128.931 672.412C129.954 672.412 130.758 672.63 131.346 673.066C131.936 673.501 132.302 674.09 132.442 674.833ZM138.724 672.526V674.117H133.707V672.526H138.724ZM134.946 670.435H137.002V678.628C137.002 678.905 137.044 679.117 137.127 679.265C137.214 679.408 137.328 679.507 137.468 679.56C137.608 679.613 137.764 679.64 137.934 679.64C138.063 679.64 138.18 679.63 138.286 679.611C138.396 679.592 138.48 679.575 138.536 679.56L138.883 681.168C138.773 681.206 138.616 681.247 138.411 681.293C138.211 681.338 137.964 681.365 137.673 681.372C137.158 681.388 136.694 681.31 136.281 681.14C135.868 680.965 135.54 680.696 135.298 680.333C135.059 679.969 134.942 679.515 134.946 678.969V670.435ZM151.391 674.833L149.516 675.037C149.463 674.848 149.37 674.67 149.238 674.503C149.109 674.337 148.935 674.202 148.715 674.1C148.495 673.997 148.227 673.946 147.908 673.946C147.48 673.946 147.12 674.039 146.829 674.225C146.541 674.41 146.399 674.651 146.403 674.946C146.399 675.2 146.492 675.407 146.681 675.566C146.874 675.725 147.192 675.855 147.636 675.958L149.124 676.276C149.95 676.454 150.564 676.736 150.965 677.122C151.37 677.509 151.575 678.015 151.579 678.64C151.575 679.189 151.414 679.674 151.096 680.094C150.781 680.511 150.344 680.837 149.783 681.071C149.223 681.306 148.579 681.424 147.852 681.424C146.783 681.424 145.923 681.2 145.272 680.753C144.62 680.302 144.232 679.676 144.107 678.872L146.113 678.679C146.204 679.073 146.397 679.371 146.692 679.571C146.988 679.772 147.372 679.872 147.846 679.872C148.334 679.872 148.727 679.772 149.022 679.571C149.321 679.371 149.471 679.122 149.471 678.827C149.471 678.577 149.374 678.371 149.181 678.208C148.992 678.045 148.696 677.92 148.295 677.833L146.806 677.52C145.969 677.346 145.35 677.052 144.948 676.64C144.547 676.223 144.348 675.696 144.352 675.06C144.348 674.522 144.494 674.056 144.789 673.662C145.088 673.265 145.503 672.958 146.033 672.742C146.567 672.522 147.183 672.412 147.88 672.412C148.903 672.412 149.708 672.63 150.295 673.066C150.886 673.501 151.251 674.09 151.391 674.833ZM157.179 681.424C156.304 681.424 155.548 681.242 154.912 680.878C154.279 680.511 153.792 679.992 153.452 679.321C153.111 678.647 152.94 677.854 152.94 676.941C152.94 676.043 153.111 675.255 153.452 674.577C153.796 673.895 154.277 673.365 154.895 672.986C155.512 672.604 156.237 672.412 157.071 672.412C157.609 672.412 158.116 672.499 158.594 672.674C159.075 672.844 159.499 673.109 159.866 673.469C160.237 673.829 160.529 674.287 160.741 674.844C160.953 675.397 161.059 676.056 161.059 676.821V677.452H153.906V676.066H159.088C159.084 675.672 158.999 675.321 158.832 675.015C158.666 674.704 158.433 674.46 158.133 674.282C157.838 674.104 157.493 674.015 157.099 674.015C156.679 674.015 156.309 674.117 155.991 674.321C155.673 674.522 155.425 674.787 155.247 675.117C155.073 675.443 154.984 675.801 154.98 676.191V677.401C154.98 677.908 155.073 678.344 155.258 678.708C155.444 679.068 155.703 679.344 156.037 679.537C156.37 679.727 156.76 679.821 157.207 679.821C157.506 679.821 157.777 679.78 158.02 679.696C158.262 679.609 158.472 679.482 158.65 679.316C158.828 679.149 158.963 678.943 159.054 678.696L160.974 678.912C160.853 679.42 160.622 679.863 160.281 680.242C159.944 680.617 159.512 680.908 158.986 681.117C158.459 681.321 157.857 681.424 157.179 681.424ZM162.84 681.253V672.526H164.834V673.98H164.925C165.084 673.477 165.357 673.088 165.743 672.816C166.133 672.539 166.578 672.401 167.078 672.401C167.192 672.401 167.319 672.407 167.459 672.418C167.603 672.426 167.722 672.439 167.817 672.458V674.35C167.73 674.319 167.592 674.293 167.402 674.27C167.217 674.244 167.037 674.23 166.863 674.23C166.488 674.23 166.15 674.312 165.851 674.475C165.556 674.634 165.323 674.855 165.152 675.14C164.982 675.424 164.897 675.751 164.897 676.122V681.253H162.84ZM177.285 672.526L174.177 681.253H171.904L168.796 672.526H170.99L172.995 679.009H173.086L175.098 672.526H177.285ZM182.315 681.424C181.44 681.424 180.685 681.242 180.048 680.878C179.416 680.511 178.929 679.992 178.588 679.321C178.247 678.647 178.077 677.854 178.077 676.941C178.077 676.043 178.247 675.255 178.588 674.577C178.933 673.895 179.414 673.365 180.031 672.986C180.649 672.604 181.374 672.412 182.207 672.412C182.745 672.412 183.253 672.499 183.73 672.674C184.211 672.844 184.635 673.109 185.003 673.469C185.374 673.829 185.666 674.287 185.878 674.844C186.09 675.397 186.196 676.056 186.196 676.821V677.452H179.043V676.066H184.225C184.221 675.672 184.135 675.321 183.969 675.015C183.802 674.704 183.569 674.46 183.27 674.282C182.975 674.104 182.63 674.015 182.236 674.015C181.815 674.015 181.446 674.117 181.128 674.321C180.81 674.522 180.562 674.787 180.384 675.117C180.209 675.443 180.12 675.801 180.117 676.191V677.401C180.117 677.908 180.209 678.344 180.395 678.708C180.581 679.068 180.84 679.344 181.173 679.537C181.507 679.727 181.897 679.821 182.344 679.821C182.643 679.821 182.914 679.78 183.156 679.696C183.399 679.609 183.609 679.482 183.787 679.316C183.965 679.149 184.1 678.943 184.19 678.696L186.111 678.912C185.99 679.42 185.759 679.863 185.418 680.242C185.081 680.617 184.649 680.908 184.122 681.117C183.596 681.321 182.993 681.424 182.315 681.424ZM187.976 681.253V672.526H189.971V673.98H190.062C190.221 673.477 190.494 673.088 190.88 672.816C191.27 672.539 191.715 672.401 192.215 672.401C192.329 672.401 192.456 672.407 192.596 672.418C192.74 672.426 192.859 672.439 192.954 672.458V674.35C192.867 674.319 192.728 674.293 192.539 674.27C192.353 674.244 192.173 674.23 191.999 674.23C191.624 674.23 191.287 674.312 190.988 674.475C190.692 674.634 190.459 674.855 190.289 675.14C190.119 675.424 190.033 675.751 190.033 676.122V681.253H187.976Z" fill="black"/>
<rect x="39.8016" y="670.295" width="25.413" height="18.9589" rx="1.41184" fill="white" stroke="#F5F5F5" stroke-width="0.403382"/>
<mask id="mask0_0_3352" style="mask-type:alpha" maskUnits="userSpaceOnUse" x="39" y="670" width="27" height="20">
<rect x="39.8016" y="670.295" width="25.413" height="18.9589" rx="1.41184" fill="white" stroke="white" stroke-width="0.403382"/>
</mask>
<g mask="url(#mask0_0_3352)">
<rect x="56.8108" y="670.094" width="8.60548" height="19.3623" fill="#189B62"/>
<path fill-rule="evenodd" clip-rule="evenodd" d="M39.5999 689.456H48.2053V670.094H39.5999V689.456Z" fill="#189B62"/>
</g>
<rect x="145.828" y="641.646" width="41.9517" height="4.03382" rx="2.01691" fill="#D9D9D9"/>
<rect x="127.67" y="461.989" width="25.413" height="18.9589" rx="1.41184" fill="white" stroke="#F5F5F5" stroke-width="0.403382"/>
<mask id="mask1_0_3352" style="mask-type:alpha" maskUnits="userSpaceOnUse" x="127" y="461" width="27" height="21">
<rect x="127.67" y="461.989" width="25.413" height="18.9589" rx="1.41184" fill="white" stroke="white" stroke-width="0.403382"/>
</mask>
<g mask="url(#mask1_0_3352)">
<rect x="144.68" y="461.788" width="8.60548" height="19.3623" fill="#189B62"/>
<path fill-rule="evenodd" clip-rule="evenodd" d="M127.469 481.15H136.074V461.788H127.469V481.15Z" fill="#189B62"/>
</g>
<path d="M172.063 465.832V477.469H170.188L164.705 469.543H164.608V477.469H162.501V465.832H164.387L169.864 473.764H169.966V465.832H172.063ZM174.309 477.469V468.741H176.366V477.469H174.309ZM175.343 467.503C175.018 467.503 174.737 467.395 174.503 467.179C174.268 466.959 174.15 466.696 174.15 466.389C174.15 466.079 174.268 465.815 174.503 465.599C174.737 465.38 175.018 465.27 175.343 465.27C175.673 465.27 175.953 465.38 176.184 465.599C176.419 465.815 176.537 466.079 176.537 466.389C176.537 466.696 176.419 466.959 176.184 467.179C175.953 467.395 175.673 467.503 175.343 467.503ZM182.317 480.923C181.578 480.923 180.944 480.823 180.414 480.622C179.883 480.425 179.457 480.16 179.135 479.827C178.813 479.493 178.59 479.124 178.465 478.719L180.317 478.27C180.4 478.44 180.522 478.609 180.681 478.776C180.84 478.946 181.054 479.086 181.323 479.196C181.595 479.31 181.938 479.366 182.351 479.366C182.934 479.366 183.417 479.224 183.8 478.94C184.183 478.66 184.374 478.198 184.374 477.554V475.901H184.272C184.165 476.113 184.01 476.33 183.806 476.554C183.605 476.777 183.338 476.965 183.005 477.116C182.675 477.268 182.26 477.344 181.76 477.344C181.09 477.344 180.482 477.187 179.936 476.872C179.395 476.554 178.963 476.08 178.641 475.452C178.323 474.819 178.164 474.027 178.164 473.077C178.164 472.118 178.323 471.31 178.641 470.651C178.963 469.988 179.397 469.486 179.942 469.145C180.487 468.8 181.095 468.628 181.766 468.628C182.277 468.628 182.698 468.715 183.027 468.889C183.361 469.06 183.626 469.266 183.823 469.509C184.02 469.747 184.169 469.973 184.272 470.185H184.385V468.741H186.414V477.611C186.414 478.357 186.236 478.974 185.88 479.463C185.523 479.952 185.037 480.317 184.419 480.56C183.802 480.802 183.101 480.923 182.317 480.923ZM182.334 475.73C182.77 475.73 183.141 475.624 183.448 475.412C183.755 475.2 183.987 474.895 184.147 474.497C184.306 474.099 184.385 473.622 184.385 473.065C184.385 472.516 184.306 472.035 184.147 471.622C183.991 471.209 183.76 470.889 183.453 470.662C183.15 470.431 182.777 470.315 182.334 470.315C181.876 470.315 181.493 470.435 181.186 470.673C180.88 470.912 180.648 471.24 180.493 471.656C180.338 472.069 180.26 472.539 180.26 473.065C180.26 473.599 180.338 474.067 180.493 474.469C180.652 474.866 180.885 475.177 181.192 475.401C181.503 475.62 181.883 475.73 182.334 475.73ZM192.426 477.639C191.551 477.639 190.795 477.457 190.158 477.094C189.526 476.726 189.039 476.207 188.698 475.537C188.357 474.863 188.187 474.069 188.187 473.156C188.187 472.259 188.357 471.471 188.698 470.793C189.043 470.111 189.524 469.58 190.141 469.202C190.759 468.819 191.484 468.628 192.318 468.628C192.855 468.628 193.363 468.715 193.84 468.889C194.321 469.06 194.746 469.325 195.113 469.685C195.484 470.045 195.776 470.503 195.988 471.06C196.2 471.613 196.306 472.272 196.306 473.037V473.668H189.153V472.281H194.335C194.331 471.887 194.246 471.537 194.079 471.23C193.912 470.92 193.679 470.675 193.38 470.497C193.085 470.319 192.74 470.23 192.346 470.23C191.926 470.23 191.556 470.332 191.238 470.537C190.92 470.738 190.672 471.003 190.494 471.332C190.319 471.658 190.23 472.016 190.227 472.406V473.616C190.227 474.124 190.319 474.56 190.505 474.923C190.691 475.283 190.95 475.56 191.283 475.753C191.617 475.942 192.007 476.037 192.454 476.037C192.753 476.037 193.024 475.995 193.266 475.912C193.509 475.825 193.719 475.698 193.897 475.531C194.075 475.365 194.21 475.158 194.301 474.912L196.221 475.128C196.1 475.635 195.869 476.079 195.528 476.457C195.191 476.832 194.759 477.124 194.232 477.332C193.706 477.537 193.104 477.639 192.426 477.639ZM198.087 477.469V468.741H200.081V470.196H200.172C200.331 469.692 200.604 469.304 200.99 469.031C201.38 468.755 201.825 468.616 202.325 468.616C202.439 468.616 202.566 468.622 202.706 468.634C202.85 468.641 202.969 468.654 203.064 468.673V470.565C202.977 470.535 202.839 470.509 202.649 470.486C202.464 470.459 202.284 470.446 202.109 470.446C201.734 470.446 201.397 470.527 201.098 470.69C200.803 470.849 200.57 471.071 200.399 471.355C200.229 471.639 200.143 471.967 200.143 472.338V477.469H198.087ZM204.471 477.469V468.741H206.528V477.469H204.471ZM205.505 467.503C205.179 467.503 204.899 467.395 204.664 467.179C204.429 466.959 204.312 466.696 204.312 466.389C204.312 466.079 204.429 465.815 204.664 465.599C204.899 465.38 205.179 465.27 205.505 465.27C205.834 465.27 206.115 465.38 206.346 465.599C206.581 465.815 206.698 466.079 206.698 466.389C206.698 466.696 206.581 466.959 206.346 467.179C206.115 467.395 205.834 467.503 205.505 467.503ZM211.194 477.645C210.641 477.645 210.143 477.546 209.7 477.349C209.261 477.149 208.912 476.853 208.655 476.463C208.401 476.073 208.274 475.592 208.274 475.02C208.274 474.527 208.365 474.12 208.547 473.798C208.728 473.476 208.976 473.219 209.291 473.026C209.605 472.832 209.959 472.687 210.353 472.588C210.751 472.486 211.162 472.412 211.586 472.366C212.098 472.313 212.512 472.266 212.831 472.224C213.149 472.179 213.38 472.111 213.524 472.02C213.672 471.925 213.745 471.779 213.745 471.582V471.548C213.745 471.12 213.619 470.789 213.365 470.554C213.111 470.319 212.745 470.202 212.268 470.202C211.764 470.202 211.365 470.312 211.069 470.531C210.778 470.751 210.581 471.01 210.478 471.31L208.558 471.037C208.709 470.507 208.959 470.063 209.308 469.707C209.656 469.348 210.083 469.079 210.586 468.901C211.09 468.719 211.647 468.628 212.257 468.628C212.677 468.628 213.096 468.677 213.512 468.776C213.929 468.874 214.31 469.037 214.655 469.264C214.999 469.488 215.276 469.793 215.484 470.179C215.696 470.565 215.802 471.048 215.802 471.628V477.469H213.825V476.27H213.757C213.632 476.512 213.456 476.74 213.228 476.952C213.005 477.16 212.723 477.329 212.382 477.457C212.045 477.582 211.649 477.645 211.194 477.645ZM211.728 476.134C212.141 476.134 212.499 476.052 212.802 475.889C213.105 475.723 213.338 475.503 213.501 475.23C213.668 474.957 213.751 474.66 213.751 474.338V473.31C213.687 473.363 213.577 473.412 213.422 473.457C213.27 473.503 213.1 473.543 212.91 473.577C212.721 473.611 212.533 473.641 212.348 473.668C212.162 473.694 212.001 473.717 211.865 473.736C211.558 473.777 211.283 473.846 211.041 473.94C210.798 474.035 210.607 474.168 210.467 474.338C210.327 474.505 210.257 474.721 210.257 474.986C210.257 475.365 210.395 475.651 210.672 475.844C210.948 476.037 211.3 476.134 211.728 476.134Z" fill="white"/>
<path d="M17.0625 66.9374H32.9457M17.0625 60.8867H32.9457M17.0625 54.8359H32.9457" stroke="white" stroke-width="1.21014" stroke-linecap="round" stroke-linejoin="round"/>
<path d="M131.344 40.7976L134.321 43.6255C135.437 44.6674 136.033 46.0813 136.033 47.6441C136.033 49.1325 136.628 50.5464 137.67 51.5883L138.042 51.9604L141.465 40.872" fill="url(#paint0_linear_0_3352)"/>
<path d="M121.223 50.6954L125.316 50.5466C126.805 50.4722 128.293 51.0675 129.335 52.1094C130.377 53.1512 131.791 53.6722 133.279 53.6722H133.8L128.293 43.4768" fill="url(#paint1_linear_0_3352)"/>
<path d="M121.223 64.8348L123.977 61.8581C125.019 60.7418 126.433 60.0721 127.921 60.0721C129.409 60.0721 130.749 59.4023 131.791 58.3604L132.163 57.9883L121 54.7883" fill="url(#paint2_linear_0_3352)"/>
<path d="M131.344 74.6581L131.121 70.5651C131.047 69.0767 131.567 67.5884 132.609 66.4721C133.577 65.4302 134.172 63.9418 134.098 62.5279V62.007L123.977 67.7372" fill="url(#paint3_linear_0_3352)"/>
<path d="M145.484 74.3605L142.433 71.6814C141.316 70.714 140.647 69.3 140.572 67.7372C140.498 66.2488 139.828 64.9093 138.786 63.8675L138.414 63.4954L135.437 74.7326" fill="url(#paint4_linear_0_3352)"/>
<path d="M155.158 64.0163L151.065 64.3139C149.577 64.4628 148.088 63.9418 146.972 62.9C145.856 61.9325 144.442 61.4116 142.954 61.486H142.433L148.386 71.4581" fill="url(#paint5_linear_0_3352)"/>
<path d="M154.488 49.9512L151.884 53.0768C150.916 54.193 149.502 54.9372 148.014 55.0116C146.526 55.0861 145.186 55.7558 144.219 56.8721L143.921 57.2442L155.233 59.9233" fill="url(#paint6_linear_0_3352)"/>
<path d="M143.995 40.5L144.367 44.593C144.516 46.0814 144.07 47.5698 143.028 48.7605C142.06 49.8767 141.614 51.2907 141.688 52.7791L141.763 53.3L151.586 47.1233" fill="url(#paint7_linear_0_3352)"/>
<path d="M167.725 64.1163V51.6681H172.637C173.577 51.6681 174.379 51.8363 175.044 52.1726C175.712 52.5049 176.221 52.977 176.569 53.5888C176.922 54.1967 177.098 54.9119 177.098 55.7345C177.098 56.5611 176.92 57.2723 176.563 57.8679C176.207 58.4595 175.69 58.9134 175.013 59.2294C174.341 59.5455 173.526 59.7035 172.57 59.7035H169.281V57.5883H172.144C172.647 57.5883 173.064 57.5194 173.396 57.3817C173.729 57.2439 173.976 57.0372 174.138 56.7617C174.304 56.4861 174.387 56.1437 174.387 55.7345C174.387 55.3211 174.304 54.9727 174.138 54.689C173.976 54.4054 173.727 54.1906 173.39 54.0447C173.058 53.8948 172.639 53.8198 172.132 53.8198H170.357V64.1163H167.725ZM174.448 58.4514L177.542 64.1163H174.636L171.609 58.4514H174.448ZM183.014 64.2987C182.053 64.2987 181.227 64.1042 180.534 63.7152C179.845 63.3221 179.314 62.767 178.941 62.0497C178.568 61.3285 178.382 60.4755 178.382 59.4908C178.382 58.5304 178.568 57.6876 178.941 56.9623C179.314 56.2369 179.839 55.6717 180.515 55.2664C181.196 54.8612 181.995 54.6586 182.91 54.6586C183.526 54.6586 184.1 54.7579 184.63 54.9564C185.165 55.151 185.631 55.4447 186.028 55.8378C186.43 56.2308 186.742 56.7252 186.964 57.3209C187.187 57.9125 187.299 58.6054 187.299 59.3996V60.1108H179.415V58.5061H184.861C184.861 58.1333 184.78 57.8031 184.618 57.5154C184.456 57.2277 184.231 57.0028 183.944 56.8407C183.66 56.6746 183.33 56.5915 182.953 56.5915C182.56 56.5915 182.211 56.6827 181.907 56.865C181.608 57.0433 181.373 57.2844 181.202 57.5883C181.032 57.8882 180.945 58.2225 180.941 58.5912V60.1169C180.941 60.5788 181.026 60.9779 181.196 61.3143C181.37 61.6506 181.616 61.9099 181.932 62.0923C182.248 62.2746 182.623 62.3658 183.056 62.3658C183.344 62.3658 183.607 62.3253 183.846 62.2442C184.085 62.1632 184.29 62.0416 184.46 61.8795C184.63 61.7175 184.76 61.5189 184.849 61.2839L187.244 61.4419C187.123 62.0173 186.873 62.5198 186.496 62.9493C186.124 63.3748 185.641 63.7071 185.05 63.9461C184.462 64.1812 183.784 64.2987 183.014 64.2987ZM197.442 54.7802L194.178 64.1163H191.26L187.996 54.7802H190.731L192.67 61.4601H192.768L194.701 54.7802H197.442ZM201.356 51.6681V64.1163H198.767V51.6681H201.356ZM205.029 67.6174C204.701 67.6174 204.393 67.5911 204.105 67.5384C203.821 67.4897 203.586 67.4269 203.4 67.3499L203.984 65.4171C204.287 65.5103 204.561 65.5609 204.804 65.569C205.051 65.5771 205.264 65.5204 205.442 65.3988C205.625 65.2773 205.773 65.0706 205.886 64.7789L206.038 64.3838L202.689 54.7802H205.412L207.345 61.6364H207.442L209.393 54.7802H212.134L208.506 65.1253C208.331 65.6278 208.094 66.0654 207.795 66.4382C207.499 66.8151 207.124 67.1048 206.67 67.3074C206.216 67.5141 205.669 67.6174 205.029 67.6174Z" fill="white"/>
<circle cx="167.19" cy="231.542" r="67.7681" fill="white"/>
<g filter="url(#filter0_d_0_3352)">
<rect x="116.711" y="181.713" width="103.266" height="103.266" rx="51.6329" fill="url(#paint8_linear_0_3352)" shape-rendering="crispEdges"/>
<path d="M127.163 233.08C127.163 210.134 145.764 191.532 168.711 191.532C191.657 191.532 210.259 210.134 210.259 233.08C210.259 256.027 191.657 274.628 168.711 274.628C145.764 274.628 127.163 256.027 127.163 233.08Z" stroke="url(#paint9_linear_0_3352)" stroke-width="0.806763"/>
<path d="M158.913 243.87C158.86 243.373 158.636 242.987 158.242 242.711C157.852 242.434 157.345 242.296 156.72 242.296C156.28 242.296 155.903 242.362 155.589 242.495C155.275 242.627 155.034 242.807 154.867 243.034C154.701 243.262 154.615 243.521 154.612 243.813C154.612 244.055 154.667 244.265 154.776 244.443C154.89 244.622 155.044 244.773 155.237 244.898C155.43 245.019 155.644 245.122 155.879 245.205C156.114 245.288 156.35 245.358 156.589 245.415L157.68 245.688C158.119 245.79 158.542 245.928 158.947 246.103C159.356 246.277 159.722 246.497 160.044 246.762C160.369 247.027 160.627 247.347 160.816 247.722C161.006 248.097 161.1 248.536 161.1 249.04C161.1 249.722 160.926 250.322 160.578 250.841C160.229 251.356 159.725 251.76 159.066 252.051C158.411 252.339 157.617 252.483 156.686 252.483C155.78 252.483 154.994 252.343 154.328 252.063C153.665 251.783 153.146 251.373 152.771 250.836C152.4 250.298 152.199 249.642 152.169 248.87H154.242C154.273 249.275 154.398 249.612 154.617 249.881C154.837 250.15 155.123 250.351 155.475 250.483C155.831 250.616 156.229 250.682 156.669 250.682C157.127 250.682 157.528 250.614 157.873 250.478C158.222 250.337 158.494 250.144 158.691 249.898C158.888 249.648 158.989 249.356 158.992 249.023C158.989 248.72 158.9 248.47 158.725 248.273C158.551 248.072 158.307 247.906 157.992 247.773C157.682 247.637 157.318 247.515 156.901 247.409L155.578 247.068C154.619 246.822 153.862 246.449 153.305 245.949C152.752 245.445 152.475 244.777 152.475 243.943C152.475 243.258 152.661 242.658 153.032 242.142C153.407 241.627 153.917 241.228 154.561 240.943C155.205 240.656 155.934 240.512 156.748 240.512C157.574 240.512 158.297 240.656 158.919 240.943C159.544 241.228 160.034 241.623 160.39 242.131C160.746 242.635 160.93 243.214 160.941 243.87H158.913ZM167.247 243.58V245.171H162.23V243.58H167.247ZM163.468 241.489H165.525V249.682C165.525 249.959 165.567 250.171 165.65 250.318C165.737 250.462 165.851 250.561 165.991 250.614C166.131 250.667 166.286 250.693 166.457 250.693C166.586 250.693 166.703 250.684 166.809 250.665C166.919 250.646 167.002 250.629 167.059 250.614L167.406 252.222C167.296 252.26 167.139 252.301 166.934 252.347C166.733 252.392 166.487 252.419 166.196 252.426C165.68 252.442 165.216 252.364 164.803 252.193C164.391 252.019 164.063 251.75 163.821 251.387C163.582 251.023 163.464 250.568 163.468 250.023V241.489ZM172.68 252.478C171.828 252.478 171.089 252.29 170.464 251.915C169.839 251.54 169.354 251.015 169.009 250.341C168.669 249.667 168.498 248.879 168.498 247.978C168.498 247.076 168.669 246.286 169.009 245.608C169.354 244.93 169.839 244.404 170.464 244.029C171.089 243.654 171.828 243.466 172.68 243.466C173.532 243.466 174.271 243.654 174.896 244.029C175.521 244.404 176.004 244.93 176.345 245.608C176.689 246.286 176.862 247.076 176.862 247.978C176.862 248.879 176.689 249.667 176.345 250.341C176.004 251.015 175.521 251.54 174.896 251.915C174.271 252.29 173.532 252.478 172.68 252.478ZM172.691 250.83C173.153 250.83 173.54 250.703 173.85 250.449C174.161 250.192 174.392 249.847 174.544 249.415C174.699 248.983 174.776 248.502 174.776 247.972C174.776 247.438 174.699 246.955 174.544 246.523C174.392 246.087 174.161 245.741 173.85 245.483C173.54 245.226 173.153 245.097 172.691 245.097C172.218 245.097 171.824 245.226 171.509 245.483C171.199 245.741 170.966 246.087 170.811 246.523C170.659 246.955 170.583 247.438 170.583 247.972C170.583 248.502 170.659 248.983 170.811 249.415C170.966 249.847 171.199 250.192 171.509 250.449C171.824 250.703 172.218 250.83 172.691 250.83ZM178.607 255.58V243.58H180.63V245.023H180.749C180.856 244.811 181.005 244.586 181.198 244.347C181.392 244.104 181.653 243.898 181.982 243.728C182.312 243.553 182.732 243.466 183.244 243.466C183.918 243.466 184.526 243.639 185.068 243.983C185.613 244.324 186.045 244.83 186.363 245.5C186.685 246.167 186.846 246.985 186.846 247.955C186.846 248.913 186.689 249.728 186.374 250.398C186.06 251.068 185.632 251.58 185.09 251.932C184.549 252.284 183.935 252.461 183.249 252.461C182.749 252.461 182.335 252.377 182.005 252.211C181.676 252.044 181.41 251.843 181.21 251.608C181.013 251.37 180.859 251.144 180.749 250.932H180.664V255.58H178.607ZM180.624 247.943C180.624 248.508 180.704 249.002 180.863 249.426C181.026 249.851 181.259 250.182 181.562 250.421C181.869 250.656 182.24 250.773 182.676 250.773C183.13 250.773 183.511 250.652 183.818 250.409C184.124 250.163 184.356 249.828 184.511 249.404C184.67 248.976 184.749 248.489 184.749 247.943C184.749 247.402 184.672 246.921 184.517 246.5C184.361 246.08 184.13 245.75 183.823 245.512C183.517 245.273 183.134 245.154 182.676 245.154C182.236 245.154 181.863 245.269 181.556 245.5C181.249 245.731 181.017 246.055 180.857 246.472C180.702 246.889 180.624 247.379 180.624 247.943Z" fill="white"/>
<path d="M173.842 219.074C174.857 220.09 175.548 221.384 175.828 222.792C176.108 224.201 175.964 225.66 175.415 226.987C174.865 228.314 173.935 229.447 172.741 230.245C171.547 231.043 170.143 231.469 168.707 231.469C167.271 231.469 165.867 231.043 164.673 230.245C163.479 229.447 162.549 228.314 161.999 226.987C161.449 225.66 161.305 224.201 161.585 222.792C161.865 221.384 162.557 220.09 163.572 219.074" stroke="white" stroke-width="1.61353" stroke-linecap="round" stroke-linejoin="round"/>
<path d="M168.711 215.331V223.399" stroke="white" stroke-width="1.61353" stroke-linecap="round" stroke-linejoin="round"/>
</g>
</g>
<defs>
<filter id="filter0_d_0_3352" x="104.711" y="170.713" width="127.266" height="127.266" filterUnits="userSpaceOnUse" color-interpolation-filters="sRGB">
<feFlood flood-opacity="0" result="BackgroundImageFix"/>
<feColorMatrix in="SourceAlpha" type="matrix" values="0 0 0 0 0 0 0 0 0 0 0 0 0 0 0 0 0 0 127 0" result="hardAlpha"/>
<feOffset dy="1"/>
<feGaussianBlur stdDeviation="6"/>
<feComposite in2="hardAlpha" operator="out"/>
<feColorMatrix type="matrix" values="0 0 0 0 0.439216 0 0 0 0 0.223529 0 0 0 0 0.941176 0 0 0 1 0"/>
<feBlend mode="normal" in2="BackgroundImageFix" result="effect1_dropShadow_0_3352"/>
<feBlend mode="normal" in="SourceGraphic" in2="effect1_dropShadow_0_3352" result="shape"/>
</filter>
<linearGradient id="paint0_linear_0_3352" x1="136.405" y1="40.7976" x2="136.405" y2="51.9604" gradientUnits="userSpaceOnUse">
<stop stop-color="#7039F0"/>
<stop offset="0.811925" stop-color="#A657F8"/>
</linearGradient>
<linearGradient id="paint1_linear_0_3352" x1="127.512" y1="43.4768" x2="127.512" y2="53.6722" gradientUnits="userSpaceOnUse">
<stop stop-color="#7039F0"/>
<stop offset="0.811925" stop-color="#A657F8"/>
</linearGradient>
<linearGradient id="paint2_linear_0_3352" x1="126.581" y1="54.7883" x2="126.581" y2="64.8348" gradientUnits="userSpaceOnUse">
<stop stop-color="#7039F0"/>
<stop offset="0.811925" stop-color="#A657F8"/>
</linearGradient>
<linearGradient id="paint3_linear_0_3352" x1="129.04" y1="62.007" x2="129.04" y2="74.6581" gradientUnits="userSpaceOnUse">
<stop stop-color="#7039F0"/>
<stop offset="0.811925" stop-color="#A657F8"/>
</linearGradient>
<linearGradient id="paint4_linear_0_3352" x1="140.461" y1="63.4954" x2="140.461" y2="74.7326" gradientUnits="userSpaceOnUse">
<stop stop-color="#7039F0"/>
<stop offset="0.811925" stop-color="#A657F8"/>
</linearGradient>
<linearGradient id="paint5_linear_0_3352" x1="148.795" y1="61.479" x2="148.795" y2="71.4581" gradientUnits="userSpaceOnUse">
<stop stop-color="#7039F0"/>
<stop offset="0.811925" stop-color="#A657F8"/>
</linearGradient>
<linearGradient id="paint6_linear_0_3352" x1="149.577" y1="49.9512" x2="149.577" y2="59.9233" gradientUnits="userSpaceOnUse">
<stop stop-color="#7039F0"/>
<stop offset="0.811925" stop-color="#A657F8"/>
</linearGradient>
<linearGradient id="paint7_linear_0_3352" x1="146.633" y1="40.5" x2="146.633" y2="53.3" gradientUnits="userSpaceOnUse">
<stop stop-color="#7039F0"/>
<stop offset="0.811925" stop-color="#A657F8"/>
</linearGradient>
<linearGradient id="paint8_linear_0_3352" x1="168.344" y1="181.713" x2="168.344" y2="284.979" gradientUnits="userSpaceOnUse">
<stop stop-color="#7039F0"/>
<stop offset="0.811925" stop-color="#A657F8"/>
</linearGradient>
<linearGradient id="paint9_linear_0_3352" x1="168.711" y1="191.128" x2="168.711" y2="275.032" gradientUnits="userSpaceOnUse">
<stop stop-color="#7039F0"/>
<stop offset="0.811925" stop-color="#A657F8"/>
</linearGradient>
<clipPath id="clip0_0_3352">
<rect width="334" height="722.86" rx="12" fill="white"/>
</clipPath>
</defs>
</svg>
