<svg width="33" height="32" viewBox="0 0 33 32" fill="none" xmlns="http://www.w3.org/2000/svg">
<g id="Group">
<g id="Group_2">
<path id="Path" d="M19.0666 18H25.7333C26.4693 18 27.0666 18.5973 27.0666 19.3333V24.6667C27.0666 25.4027 26.4693 26 25.7333 26H20.3999C19.6639 26 19.0666 25.4027 19.0666 24.6667V18C19.0666 10 20.3999 8.66667 24.3999 6" stroke="#00FF1A" stroke-width="1.5" stroke-linecap="round" stroke-linejoin="round"/>
<path id="Path_2" d="M5.73325 18H12.3999C13.1359 18 13.7332 18.5973 13.7332 19.3333V24.6667C13.7332 25.4027 13.1359 26 12.3999 26H7.06658C6.33058 26 5.73325 25.4027 5.73325 24.6667V18C5.73325 10 7.06658 8.66667 11.0666 6" stroke="#00FF1A" stroke-width="1.5" stroke-linecap="round" stroke-linejoin="round"/>
</g>
</g>
</svg>
