<svg width="167" height="40" viewBox="0 0 167 40" fill="none" xmlns="http://www.w3.org/2000/svg">
<path d="M34.603 14.5949H30.3357L27.3153 22.8801L24.2396 14.5949H20L25.6528 28.2003H28.9779L34.603 14.5949Z" fill="#493A5F"/>
<path d="M47.5936 20.8018C47.5936 17.1719 44.7118 14.3178 41.0264 14.3178C37.0639 14.3178 33.9604 17.3658 33.9604 21.3283C33.9604 25.3739 37.1193 28.4774 41.1095 28.4774C43.9359 28.4774 46.2081 27.4244 47.2056 25.6233L44.1576 23.7668C43.6865 24.598 42.4119 25.1522 41.1926 25.1522C39.3361 25.1522 38.0615 24.1824 37.7012 22.3259H47.4827C47.5659 21.7994 47.5936 21.2729 47.5936 20.8018ZM37.7567 19.832C38.1169 18.3634 39.1976 17.4767 40.8324 17.4767C42.2733 17.4767 43.5203 18.4742 43.6865 19.832H37.7567Z" fill="#493A5F"/>
<path d="M52.9915 8.80358H49.0845V28.2003H52.9915V8.80358Z" fill="#493A5F"/>
<path d="M61.4243 14.3178C57.4064 14.3178 54.3584 17.3658 54.3584 21.4114C54.3584 25.457 57.4064 28.4774 61.4243 28.4774C65.4145 28.4774 68.4903 25.457 68.4903 21.4114C68.4903 17.3658 65.4145 14.3178 61.4243 14.3178ZM61.4243 18.0586C63.2532 18.0586 64.6663 19.4718 64.6663 21.4114C64.6663 23.2957 63.2532 24.7366 61.4243 24.7366C59.5678 24.7366 58.1823 23.2957 58.1823 21.4114C58.1823 19.4718 59.5678 18.0586 61.4243 18.0586Z" fill="#493A5F"/>
<path d="M82.8293 24.5703L79.3656 23.0186C78.8392 24.0993 77.7585 24.7366 76.4284 24.7366C74.4888 24.7366 73.1033 23.2957 73.1033 21.4114C73.1033 19.4995 74.4888 18.0586 76.4284 18.0586C77.6199 18.0586 78.6175 18.6405 79.1163 19.5549L82.4137 17.6706C81.333 15.6478 79.0885 14.3178 76.4284 14.3178C72.3551 14.3178 69.2793 17.3658 69.2793 21.4114C69.2793 25.457 72.3551 28.4774 76.4284 28.4774C79.3379 28.4774 81.8041 26.9257 82.8293 24.5703Z" fill="#493A5F"/>
<path d="M85.9913 8C84.6889 8 83.6082 9.08067 83.6082 10.3553C83.6082 11.6577 84.6889 12.7383 85.9913 12.7383C87.2936 12.7383 88.3743 11.6577 88.3743 10.3553C88.3743 9.08067 87.2936 8 85.9913 8ZM84.0516 14.5949V28.2003H87.9586V14.5949H84.0516Z" fill="#493A5F"/>
<path d="M98.6604 24.5703C98.3556 24.6812 97.8291 24.7643 97.4412 24.7643C96.3051 24.7643 95.3352 23.9607 95.3352 22.6861V18.308H98.6881V14.5949H95.3352V11.0203H91.4282V14.5949H88.9066V18.308H91.4282V22.8801C91.4282 26.3992 93.6727 28.422 96.8593 28.422C97.5797 28.422 98.3556 28.2834 98.8544 28.034L98.6604 24.5703Z" fill="#493A5F"/>
<path d="M109.425 14.5949L106.405 22.5475L103.384 14.5949H99.1726L104.41 27.0919L101.888 32.717H106.072L113.637 14.5949H109.425Z" fill="#493A5F"/>
<path fill-rule="evenodd" clip-rule="evenodd" d="M125 5C123.895 5 123 5.89543 123 7V27C123 31.4183 126.582 35 131 35H145C149.418 35 153 31.4183 153 27V13C153 8.58172 149.418 5 145 5H125ZM131 16.7888C131 13.0758 134.159 10 137.955 10C141.779 10 144.91 13.0758 144.91 16.7888C144.91 18.0635 144.439 19.7815 143.386 21.4718L138.288 29.6738H133.605L137.706 23.1898C137.539 23.2175 137.373 23.2175 137.207 23.2175C133.66 23.2175 131 20.5019 131 16.7888ZM134.99 16.8166C134.99 18.4514 136.293 19.7538 137.983 19.7538C139.618 19.7538 140.892 18.4514 140.892 16.8166C140.892 15.1817 139.59 13.9071 137.955 13.9071C136.293 13.9071 134.99 15.1817 134.99 16.8166Z" fill="#493A5F"/>
</svg>
