<svg width="419" height="153" viewBox="0 0 419 153" fill="none" xmlns="http://www.w3.org/2000/svg">
<g filter="url(#filter0_d_0_3385)">
<rect x="15" y="5" width="389.581" height="123.903" rx="12" fill="white" shape-rendering="crispEdges"/>
<path d="M44.0909 49.124H40.1477V37.4877H44.1705C45.3258 37.4877 46.3182 37.7206 47.1477 38.1865C47.9811 38.6486 48.6212 39.3134 49.0682 40.1808C49.5152 41.0483 49.7386 42.0861 49.7386 43.2945C49.7386 44.5066 49.5133 45.5483 49.0625 46.4195C48.6155 47.2907 47.9697 47.9593 47.125 48.4252C46.2841 48.8911 45.2727 49.124 44.0909 49.124ZM42.2557 47.3002H43.9886C44.7992 47.3002 45.4754 47.1524 46.017 46.857C46.5587 46.5577 46.9659 46.1127 47.2386 45.5218C47.5114 44.9271 47.6477 44.1846 47.6477 43.2945C47.6477 42.4043 47.5114 41.6657 47.2386 41.0786C46.9659 40.4877 46.5625 40.0464 46.0284 39.7547C45.4981 39.4593 44.839 39.3115 44.0511 39.3115H42.2557V47.3002ZM55.4574 49.2945C54.6051 49.2945 53.8665 49.107 53.2415 48.732C52.6165 48.357 52.1316 47.8324 51.7869 47.1581C51.446 46.4839 51.2756 45.696 51.2756 44.7945C51.2756 43.893 51.446 43.1032 51.7869 42.4252C52.1316 41.7471 52.6165 41.2206 53.2415 40.8456C53.8665 40.4706 54.6051 40.2831 55.4574 40.2831C56.3097 40.2831 57.0483 40.4706 57.6733 40.8456C58.2983 41.2206 58.7812 41.7471 59.1222 42.4252C59.4669 43.1032 59.6392 43.893 59.6392 44.7945C59.6392 45.696 59.4669 46.4839 59.1222 47.1581C58.7812 47.8324 58.2983 48.357 57.6733 48.732C57.0483 49.107 56.3097 49.2945 55.4574 49.2945ZM55.4687 47.6468C55.9309 47.6468 56.3172 47.5199 56.6278 47.2661C56.9384 47.0085 57.1695 46.6638 57.321 46.232C57.4763 45.8002 57.554 45.3191 57.554 44.7888C57.554 44.2547 57.4763 43.7718 57.321 43.3399C57.1695 42.9043 56.9384 42.5577 56.6278 42.3002C56.3172 42.0426 55.9309 41.9138 55.4687 41.9138C54.9953 41.9138 54.6013 42.0426 54.2869 42.3002C53.9763 42.5577 53.7434 42.9043 53.5881 43.3399C53.4366 43.7718 53.3608 44.2547 53.3608 44.7888C53.3608 45.3191 53.4366 45.8002 53.5881 46.232C53.7434 46.6638 53.9763 47.0085 54.2869 47.2661C54.6013 47.5199 54.9953 47.6468 55.4687 47.6468ZM62.9361 49.124L60.4702 40.3968H62.5668L64.1009 46.5331H64.1804L65.7486 40.3968H67.8224L69.3906 46.499H69.4759L70.9872 40.3968H73.0895L70.6179 49.124H68.4759L66.8395 43.2263H66.7202L65.0838 49.124H62.9361ZM76.5824 44.0104V49.124H74.5256V40.3968H76.4915V41.8797H76.5937C76.7945 41.3911 77.1146 41.0028 77.554 40.7149C77.9972 40.4271 78.5445 40.2831 79.196 40.2831C79.7983 40.2831 80.3229 40.4119 80.7699 40.6695C81.2206 40.9271 81.5691 41.3002 81.8153 41.7888C82.0653 42.2774 82.1884 42.8702 82.1847 43.5672V49.124H80.1278V43.8854C80.1278 43.3021 79.9763 42.8456 79.6733 42.5161C79.374 42.1865 78.9593 42.0218 78.429 42.0218C78.0691 42.0218 77.749 42.1013 77.4687 42.2604C77.1922 42.4157 76.9744 42.6411 76.8153 42.9365C76.66 43.232 76.5824 43.5899 76.5824 44.0104ZM86.3324 37.4877V49.124H84.2756V37.4877H86.3324ZM92.2543 49.2945C91.402 49.2945 90.6633 49.107 90.0383 48.732C89.4133 48.357 88.9285 47.8324 88.5838 47.1581C88.2429 46.4839 88.0724 45.696 88.0724 44.7945C88.0724 43.893 88.2429 43.1032 88.5838 42.4252C88.9285 41.7471 89.4133 41.2206 90.0383 40.8456C90.6633 40.4706 91.402 40.2831 92.2543 40.2831C93.1065 40.2831 93.8452 40.4706 94.4702 40.8456C95.0952 41.2206 95.5781 41.7471 95.919 42.4252C96.2637 43.1032 96.4361 43.893 96.4361 44.7945C96.4361 45.696 96.2637 46.4839 95.919 47.1581C95.5781 47.8324 95.0952 48.357 94.4702 48.732C93.8452 49.107 93.1065 49.2945 92.2543 49.2945ZM92.2656 47.6468C92.7277 47.6468 93.1141 47.5199 93.4247 47.2661C93.7353 47.0085 93.9664 46.6638 94.1179 46.232C94.2732 45.8002 94.3508 45.3191 94.3508 44.7888C94.3508 44.2547 94.2732 43.7718 94.1179 43.3399C93.9664 42.9043 93.7353 42.5577 93.4247 42.3002C93.1141 42.0426 92.7277 41.9138 92.2656 41.9138C91.7921 41.9138 91.3982 42.0426 91.0838 42.3002C90.7732 42.5577 90.5402 42.9043 90.3849 43.3399C90.2334 43.7718 90.1577 44.2547 90.1577 44.7888C90.1577 45.3191 90.2334 45.8002 90.3849 46.232C90.5402 46.6638 90.7732 47.0085 91.0838 47.2661C91.3982 47.5199 91.7921 47.6468 92.2656 47.6468ZM100.693 49.3002C100.14 49.3002 99.642 49.2017 99.1989 49.0047C98.7595 48.8039 98.411 48.5085 98.1534 48.1183C97.8996 47.7282 97.7727 47.2471 97.7727 46.6752C97.7727 46.1827 97.8636 45.7755 98.0455 45.4536C98.2273 45.1316 98.4754 44.874 98.7898 44.6808C99.1042 44.4877 99.4583 44.3418 99.8523 44.2433C100.25 44.1411 100.661 44.0672 101.085 44.0218C101.597 43.9687 102.011 43.9214 102.33 43.8797C102.648 43.8343 102.879 43.7661 103.023 43.6752C103.17 43.5805 103.244 43.4346 103.244 43.2377V43.2036C103.244 42.7755 103.117 42.4441 102.864 42.2093C102.61 41.9744 102.244 41.857 101.767 41.857C101.263 41.857 100.864 41.9668 100.568 42.1865C100.277 42.4062 100.08 42.6657 99.9773 42.9649L98.0568 42.6922C98.2083 42.1619 98.4583 41.7187 98.8068 41.3627C99.1553 41.0028 99.5814 40.7339 100.085 40.5558C100.589 40.374 101.146 40.2831 101.756 40.2831C102.176 40.2831 102.595 40.3324 103.011 40.4308C103.428 40.5293 103.809 40.6922 104.153 40.9195C104.498 41.143 104.775 41.4479 104.983 41.8343C105.195 42.2206 105.301 42.7036 105.301 43.2831V49.124H103.324V47.9252H103.256C103.131 48.1676 102.955 48.3949 102.727 48.607C102.504 48.8153 102.222 48.9839 101.881 49.1127C101.544 49.2377 101.148 49.3002 100.693 49.3002ZM101.227 47.7888C101.64 47.7888 101.998 47.7074 102.301 47.5445C102.604 47.3778 102.837 47.1581 103 46.8854C103.167 46.6127 103.25 46.3153 103.25 45.9933V44.9649C103.186 45.018 103.076 45.0672 102.92 45.1127C102.769 45.1581 102.598 45.1979 102.409 45.232C102.22 45.2661 102.032 45.2964 101.847 45.3229C101.661 45.3494 101.5 45.3721 101.364 45.3911C101.057 45.4327 100.782 45.5009 100.54 45.5956C100.297 45.6903 100.106 45.8229 99.9659 45.9933C99.8258 46.16 99.7557 46.3759 99.7557 46.6411C99.7557 47.0199 99.8939 47.3058 100.17 47.499C100.447 47.6922 100.799 47.7888 101.227 47.7888ZM110.608 49.2774C109.922 49.2774 109.309 49.1013 108.767 48.749C108.225 48.3968 107.797 47.8854 107.483 47.2149C107.169 46.5445 107.011 45.7301 107.011 44.7718C107.011 43.8021 107.17 42.9839 107.489 42.3172C107.811 41.6468 108.244 41.1411 108.79 40.8002C109.335 40.4555 109.943 40.2831 110.614 40.2831C111.125 40.2831 111.545 40.3702 111.875 40.5445C112.205 40.7149 112.466 40.9214 112.659 41.1638C112.852 41.4024 113.002 41.6278 113.108 41.8399H113.193V37.4877H115.256V49.124H113.233V47.749H113.108C113.002 47.9611 112.848 48.1865 112.648 48.4252C112.447 48.66 112.182 48.8608 111.852 49.0274C111.523 49.1941 111.108 49.2774 110.608 49.2774ZM111.182 47.5899C111.617 47.5899 111.989 47.4725 112.295 47.2377C112.602 46.999 112.835 46.6676 112.994 46.2433C113.153 45.8191 113.233 45.3248 113.233 44.7604C113.233 44.196 113.153 43.7055 112.994 43.2888C112.839 42.8721 112.608 42.5483 112.301 42.3172C111.998 42.0861 111.625 41.9706 111.182 41.9706C110.723 41.9706 110.341 42.0899 110.034 42.3286C109.727 42.5672 109.496 42.8968 109.341 43.3172C109.186 43.7377 109.108 44.2187 109.108 44.7604C109.108 45.3058 109.186 45.7926 109.341 46.2206C109.5 46.6449 109.733 46.9801 110.04 47.2263C110.35 47.4687 110.731 47.5899 111.182 47.5899Z" fill="black"/>
<rect x="161.54" y="33.124" width="28.5931" height="28.5931" rx="4.76551" fill="#FEF1EB"/>
<path d="M170.276 48.2149L175.836 53.7747L181.396 48.2149M175.836 53.7747V41.0667V53.7747Z" stroke="#F06A30" stroke-width="2.38276" stroke-linecap="round" stroke-linejoin="round"/>
<path d="M44.767 85.1429V96.7793H42.6591V87.1941H42.5909L39.8693 88.9327V87.0009L42.7614 85.1429H44.767ZM52.0227 97.0009C51.0871 97.0009 50.2841 96.7641 49.6136 96.2907C48.947 95.8134 48.4337 95.1259 48.0739 94.2282C47.7178 93.3266 47.5398 92.2414 47.5398 90.9725C47.5436 89.7035 47.7235 88.624 48.0795 87.7338C48.4394 86.8399 48.9527 86.1581 49.6193 85.6884C50.2898 85.2187 51.0909 84.9838 52.0227 84.9838C52.9545 84.9838 53.7557 85.2187 54.4261 85.6884C55.0966 86.1581 55.6098 86.8399 55.9659 87.7338C56.3258 88.6278 56.5057 89.7073 56.5057 90.9725C56.5057 92.2452 56.3258 93.3323 55.9659 94.2338C55.6098 95.1316 55.0966 95.8172 54.4261 96.2907C53.7595 96.7641 52.9583 97.0009 52.0227 97.0009ZM52.0227 95.2225C52.75 95.2225 53.3239 94.8645 53.7443 94.1486C54.1686 93.4289 54.3807 92.3702 54.3807 90.9725C54.3807 90.0482 54.2841 89.2717 54.0909 88.6429C53.8977 88.0141 53.625 87.5407 53.2727 87.2225C52.9205 86.9005 52.5038 86.7395 52.0227 86.7395C51.2992 86.7395 50.7273 87.0994 50.3068 87.8191C49.8864 88.535 49.6742 89.5861 49.6705 90.9725C49.6667 91.9005 49.7595 92.6808 49.9489 93.3134C50.142 93.946 50.4148 94.4232 50.767 94.7452C51.1193 95.0634 51.5379 95.2225 52.0227 95.2225ZM59.2301 96.9043C58.8854 96.9043 58.59 96.7831 58.3437 96.5407C58.0975 96.2982 57.9763 96.0028 57.9801 95.6543C57.9763 95.3134 58.0975 95.0217 58.3437 94.7793C58.59 94.5369 58.8854 94.4157 59.2301 94.4157C59.5634 94.4157 59.8532 94.5369 60.0994 94.7793C60.3494 95.0217 60.4763 95.3134 60.4801 95.6543C60.4763 95.8854 60.4157 96.0956 60.2983 96.285C60.1847 96.4744 60.0331 96.6259 59.8437 96.7395C59.6581 96.8494 59.4536 96.9043 59.2301 96.9043ZM62.3707 94.6202V92.9441L67.3082 85.1429H68.706V87.5293H67.8537L64.5298 92.7963V92.8873H71.4219V94.6202H62.3707ZM67.9219 96.7793V94.1088L67.9446 93.3588V85.1429H69.9332V96.7793H67.9219ZM77.2827 96.9384C76.5251 96.9384 75.8471 96.7963 75.2486 96.5123C74.6501 96.2244 74.1747 95.8304 73.8224 95.3304C73.474 94.8304 73.2883 94.2585 73.2656 93.6145H75.3111C75.349 94.0918 75.5554 94.4819 75.9304 94.785C76.3054 95.0842 76.7562 95.2338 77.2827 95.2338C77.6955 95.2338 78.063 95.1391 78.3849 94.9498C78.7069 94.7604 78.9607 94.4971 79.1463 94.16C79.3319 93.8229 79.4228 93.4384 79.419 93.0066C79.4228 92.5672 79.33 92.177 79.1406 91.8361C78.9512 91.4952 78.6918 91.2282 78.3622 91.035C78.0327 90.838 77.6539 90.7395 77.2258 90.7395C76.8774 90.7357 76.5346 90.8001 76.1974 90.9327C75.8603 91.0653 75.5933 91.2395 75.3963 91.4554L73.4929 91.1429L74.1008 85.1429H80.8508V86.9043H75.8452L75.5099 89.9895H75.5781C75.794 89.7357 76.099 89.5255 76.4929 89.3588C76.8868 89.1884 77.3187 89.1032 77.7883 89.1032C78.4929 89.1032 79.1217 89.2698 79.6747 89.6032C80.2277 89.9327 80.6633 90.3873 80.9815 90.9668C81.2997 91.5463 81.4588 92.2092 81.4588 92.9554C81.4588 93.7244 81.2808 94.41 80.9247 95.0123C80.5724 95.6107 80.0819 96.0823 79.4531 96.427C78.8281 96.7679 78.1046 96.9384 77.2827 96.9384ZM87.3537 96.7793V88.052H89.3196V89.535H89.4219C89.6037 89.035 89.9048 88.6448 90.3253 88.3645C90.7457 88.0804 91.2476 87.9384 91.831 87.9384C92.4219 87.9384 92.92 88.0823 93.3253 88.3702C93.7344 88.6543 94.0222 89.0426 94.1889 89.535H94.2798C94.473 89.0501 94.7988 88.6638 95.2571 88.3759C95.7192 88.0842 96.2666 87.9384 96.8991 87.9384C97.7022 87.9384 98.3575 88.1922 98.8651 88.6998C99.3726 89.2073 99.6264 89.9479 99.6264 90.9213V96.7793H97.5639V91.2395C97.5639 90.6979 97.42 90.302 97.1321 90.052C96.8442 89.7982 96.4919 89.6713 96.0753 89.6713C95.5791 89.6713 95.1908 89.8266 94.9105 90.1373C94.634 90.4441 94.4957 90.8437 94.4957 91.3361V96.7793H92.4787V91.1543C92.4787 90.7035 92.3423 90.3437 92.0696 90.0748C91.8007 89.8058 91.4484 89.6713 91.0128 89.6713C90.7173 89.6713 90.4484 89.7471 90.206 89.8986C89.9635 90.0463 89.7704 90.2566 89.6264 90.5293C89.4825 90.7982 89.4105 91.1126 89.4105 91.4725V96.7793H87.3537ZM101.804 96.7793V85.1429H103.861V89.4952H103.946C104.052 89.2831 104.202 89.0577 104.395 88.8191C104.588 88.5766 104.849 88.3702 105.179 88.1998C105.509 88.0255 105.929 87.9384 106.44 87.9384C107.115 87.9384 107.723 88.1107 108.264 88.4554C108.81 88.7963 109.241 89.302 109.56 89.9725C109.882 90.6391 110.043 91.4573 110.043 92.427C110.043 93.3854 109.885 94.1998 109.571 94.8702C109.257 95.5407 108.829 96.052 108.287 96.4043C107.745 96.7566 107.132 96.9327 106.446 96.9327C105.946 96.9327 105.531 96.8494 105.202 96.6827C104.872 96.516 104.607 96.3153 104.406 96.0804C104.209 95.8418 104.056 95.6164 103.946 95.4043H103.827V96.7793H101.804ZM103.821 92.4157C103.821 92.9801 103.901 93.4744 104.06 93.8986C104.223 94.3229 104.455 94.6543 104.759 94.8929C105.065 95.1278 105.437 95.2452 105.872 95.2452C106.327 95.2452 106.707 95.124 107.014 94.8816C107.321 94.6354 107.552 94.3001 107.707 93.8759C107.866 93.4479 107.946 92.9611 107.946 92.4157C107.946 91.874 107.868 91.3929 107.713 90.9725C107.558 90.552 107.327 90.2225 107.02 89.9838C106.713 89.7452 106.33 89.6259 105.872 89.6259C105.433 89.6259 105.06 89.7414 104.753 89.9725C104.446 90.2035 104.213 90.5274 104.054 90.9441C103.899 91.3607 103.821 91.8513 103.821 92.4157ZM116.541 84.5975L112.791 98.5293H110.99L114.74 84.5975H116.541ZM124.751 90.3588L122.876 90.5634C122.823 90.374 122.731 90.196 122.598 90.0293C122.469 89.8626 122.295 89.7282 122.075 89.6259C121.856 89.5236 121.587 89.4725 121.268 89.4725C120.84 89.4725 120.481 89.5653 120.189 89.7509C119.901 89.9365 119.759 90.177 119.763 90.4725C119.759 90.7263 119.852 90.9327 120.041 91.0918C120.234 91.2509 120.553 91.3816 120.996 91.4838L122.484 91.802C123.31 91.9801 123.924 92.2623 124.325 92.6486C124.731 93.035 124.935 93.5407 124.939 94.1657C124.935 94.7149 124.774 95.1998 124.456 95.6202C124.142 96.0369 123.704 96.3626 123.143 96.5975C122.583 96.8323 121.939 96.9498 121.212 96.9498C120.143 96.9498 119.284 96.7263 118.632 96.2793C117.981 95.8285 117.592 95.2016 117.467 94.3986L119.473 94.2054C119.564 94.5994 119.757 94.8967 120.053 95.0975C120.348 95.2982 120.732 95.3986 121.206 95.3986C121.695 95.3986 122.087 95.2982 122.382 95.0975C122.681 94.8967 122.831 94.6486 122.831 94.3532C122.831 94.1032 122.734 93.8967 122.541 93.7338C122.352 93.571 122.056 93.446 121.655 93.3588L120.166 93.0463C119.329 92.8721 118.71 92.5785 118.308 92.1657C117.907 91.749 117.708 91.2225 117.712 90.5861C117.708 90.0482 117.854 89.5823 118.149 89.1884C118.448 88.7907 118.863 88.4838 119.393 88.2679C119.928 88.0482 120.543 87.9384 121.24 87.9384C122.263 87.9384 123.068 88.1562 123.655 88.5918C124.246 89.0274 124.611 89.6164 124.751 90.3588Z" fill="black"/>
<rect x="209.195" y="5" width="1.19138" height="123.903" fill="white"/>
<path d="M237.931 37.4877H240.039V45.0899C240.039 45.9233 239.842 46.6562 239.448 47.2888C239.058 47.9214 238.509 48.4157 237.8 48.7718C237.092 49.124 236.264 49.3002 235.317 49.3002C234.367 49.3002 233.537 49.124 232.829 48.7718C232.121 48.4157 231.571 47.9214 231.181 47.2888C230.791 46.6562 230.596 45.9233 230.596 45.0899V37.4877H232.704V44.9138C232.704 45.3986 232.81 45.8305 233.022 46.2093C233.238 46.588 233.541 46.8854 233.931 47.1013C234.321 47.3134 234.783 47.4195 235.317 47.4195C235.852 47.4195 236.314 47.3134 236.704 47.1013C237.098 46.8854 237.401 46.588 237.613 46.2093C237.825 45.8305 237.931 45.3986 237.931 44.9138V37.4877ZM242.239 52.3968V40.3968H244.262V41.8399H244.381C244.487 41.6278 244.637 41.4024 244.83 41.1638C245.023 40.9214 245.285 40.7149 245.614 40.5445C245.944 40.3702 246.364 40.2831 246.876 40.2831C247.55 40.2831 248.158 40.4555 248.7 40.8002C249.245 41.1411 249.677 41.6468 249.995 42.3172C250.317 42.9839 250.478 43.8021 250.478 44.7718C250.478 45.7301 250.321 46.5445 250.006 47.2149C249.692 47.8854 249.264 48.3968 248.722 48.749C248.181 49.1013 247.567 49.2774 246.881 49.2774C246.381 49.2774 245.967 49.1941 245.637 49.0274C245.308 48.8608 245.042 48.66 244.842 48.4252C244.645 48.1865 244.491 47.9611 244.381 47.749H244.296V52.3968H242.239ZM244.256 44.7604C244.256 45.3248 244.336 45.8191 244.495 46.2433C244.658 46.6676 244.891 46.999 245.194 47.2377C245.501 47.4725 245.872 47.5899 246.308 47.5899C246.762 47.5899 247.143 47.4687 247.45 47.2263C247.756 46.9801 247.987 46.6449 248.143 46.2206C248.302 45.7926 248.381 45.3058 248.381 44.7604C248.381 44.2187 248.304 43.7377 248.148 43.3172C247.993 42.8968 247.762 42.5672 247.455 42.3286C247.148 42.0899 246.766 41.9706 246.308 41.9706C245.868 41.9706 245.495 42.0861 245.188 42.3172C244.881 42.5483 244.648 42.8721 244.489 43.2888C244.334 43.7055 244.256 44.196 244.256 44.7604ZM254.296 37.4877V49.124H252.239V37.4877H254.296ZM260.218 49.2945C259.366 49.2945 258.627 49.107 258.002 48.732C257.377 48.357 256.892 47.8324 256.548 47.1581C256.207 46.4839 256.036 45.696 256.036 44.7945C256.036 43.893 256.207 43.1032 256.548 42.4252C256.892 41.7471 257.377 41.2206 258.002 40.8456C258.627 40.4706 259.366 40.2831 260.218 40.2831C261.07 40.2831 261.809 40.4706 262.434 40.8456C263.059 41.2206 263.542 41.7471 263.883 42.4252C264.228 43.1032 264.4 43.893 264.4 44.7945C264.4 45.696 264.228 46.4839 263.883 47.1581C263.542 47.8324 263.059 48.357 262.434 48.732C261.809 49.107 261.07 49.2945 260.218 49.2945ZM260.229 47.6468C260.692 47.6468 261.078 47.5199 261.389 47.2661C261.699 47.0085 261.93 46.6638 262.082 46.232C262.237 45.8002 262.315 45.3191 262.315 44.7888C262.315 44.2547 262.237 43.7718 262.082 43.3399C261.93 42.9043 261.699 42.5577 261.389 42.3002C261.078 42.0426 260.692 41.9138 260.229 41.9138C259.756 41.9138 259.362 42.0426 259.048 42.3002C258.737 42.5577 258.504 42.9043 258.349 43.3399C258.197 43.7718 258.121 44.2547 258.121 44.7888C258.121 45.3191 258.197 45.8002 258.349 46.232C258.504 46.6638 258.737 47.0085 259.048 47.2661C259.362 47.5199 259.756 47.6468 260.229 47.6468ZM268.657 49.3002C268.104 49.3002 267.606 49.2017 267.163 49.0047C266.723 48.8039 266.375 48.5085 266.117 48.1183C265.863 47.7282 265.737 47.2471 265.737 46.6752C265.737 46.1827 265.827 45.7755 266.009 45.4536C266.191 45.1316 266.439 44.874 266.754 44.6808C267.068 44.4877 267.422 44.3418 267.816 44.2433C268.214 44.1411 268.625 44.0672 269.049 44.0218C269.56 43.9687 269.975 43.9214 270.293 43.8797C270.612 43.8343 270.843 43.7661 270.987 43.6752C271.134 43.5805 271.208 43.4346 271.208 43.2377V43.2036C271.208 42.7755 271.081 42.4441 270.827 42.2093C270.574 41.9744 270.208 41.857 269.731 41.857C269.227 41.857 268.827 41.9668 268.532 42.1865C268.24 42.4062 268.043 42.6657 267.941 42.9649L266.021 42.6922C266.172 42.1619 266.422 41.7187 266.771 41.3627C267.119 41.0028 267.545 40.7339 268.049 40.5558C268.553 40.374 269.11 40.2831 269.719 40.2831C270.14 40.2831 270.558 40.3324 270.975 40.4308C271.392 40.5293 271.773 40.6922 272.117 40.9195C272.462 41.143 272.738 41.4479 272.947 41.8343C273.159 42.2206 273.265 42.7036 273.265 43.2831V49.124H271.288V47.9252H271.219C271.094 48.1676 270.918 48.3949 270.691 48.607C270.468 48.8153 270.185 48.9839 269.844 49.1127C269.507 49.2377 269.112 49.3002 268.657 49.3002ZM269.191 47.7888C269.604 47.7888 269.962 47.7074 270.265 47.5445C270.568 47.3778 270.801 47.1581 270.964 46.8854C271.13 46.6127 271.214 46.3153 271.214 45.9933V44.9649C271.149 45.018 271.04 45.0672 270.884 45.1127C270.733 45.1581 270.562 45.1979 270.373 45.232C270.183 45.2661 269.996 45.2964 269.81 45.3229C269.625 45.3494 269.464 45.3721 269.327 45.3911C269.021 45.4327 268.746 45.5009 268.504 45.5956C268.261 45.6903 268.07 45.8229 267.93 45.9933C267.79 46.16 267.719 46.3759 267.719 46.6411C267.719 47.0199 267.858 47.3058 268.134 47.499C268.411 47.6922 268.763 47.7888 269.191 47.7888ZM278.572 49.2774C277.886 49.2774 277.273 49.1013 276.731 48.749C276.189 48.3968 275.761 47.8854 275.447 47.2149C275.132 46.5445 274.975 45.7301 274.975 44.7718C274.975 43.8021 275.134 42.9839 275.452 42.3172C275.774 41.6468 276.208 41.1411 276.754 40.8002C277.299 40.4555 277.907 40.2831 278.577 40.2831C279.089 40.2831 279.509 40.3702 279.839 40.5445C280.168 40.7149 280.43 40.9214 280.623 41.1638C280.816 41.4024 280.966 41.6278 281.072 41.8399H281.157V37.4877H283.219V49.124H281.197V47.749H281.072C280.966 47.9611 280.812 48.1865 280.612 48.4252C280.411 48.66 280.146 48.8608 279.816 49.0274C279.487 49.1941 279.072 49.2774 278.572 49.2774ZM279.146 47.5899C279.581 47.5899 279.952 47.4725 280.259 47.2377C280.566 46.999 280.799 46.6676 280.958 46.2433C281.117 45.8191 281.197 45.3248 281.197 44.7604C281.197 44.196 281.117 43.7055 280.958 43.2888C280.803 42.8721 280.572 42.5483 280.265 42.3172C279.962 42.0861 279.589 41.9706 279.146 41.9706C278.687 41.9706 278.305 42.0899 277.998 42.3286C277.691 42.5672 277.46 42.8968 277.305 43.3172C277.149 43.7377 277.072 44.2187 277.072 44.7604C277.072 45.3058 277.149 45.7926 277.305 46.2206C277.464 46.6449 277.697 46.9801 278.004 47.2263C278.314 47.4687 278.695 47.5899 279.146 47.5899Z" fill="black"/>
<rect x="351.988" y="33.124" width="28.5931" height="28.5931" rx="4.76551" fill="#FEF1EB"/>
<path d="M360.725 46.6264L366.284 41.0667L371.844 46.6264M366.284 53.7747V41.0667V53.7747Z" stroke="#F06A30" stroke-width="2.38276" stroke-linecap="round" stroke-linejoin="round"/>
<path d="M234.528 96.9384C233.77 96.9384 233.092 96.7963 232.494 96.5123C231.895 96.2244 231.42 95.8304 231.067 95.3304C230.719 94.8304 230.533 94.2585 230.511 93.6145H232.556C232.594 94.0918 232.8 94.4819 233.175 94.785C233.55 95.0842 234.001 95.2338 234.528 95.2338C234.941 95.2338 235.308 95.1391 235.63 94.9498C235.952 94.7604 236.206 94.4971 236.391 94.16C236.577 93.8229 236.668 93.4384 236.664 93.0066C236.668 92.5672 236.575 92.177 236.386 91.8361C236.196 91.4952 235.937 91.2282 235.607 91.035C235.278 90.838 234.899 90.7395 234.471 90.7395C234.122 90.7357 233.78 90.8001 233.442 90.9327C233.105 91.0653 232.838 91.2395 232.641 91.4554L230.738 91.1429L231.346 85.1429H238.096V86.9043H233.09L232.755 89.9895H232.823C233.039 89.7357 233.344 89.5255 233.738 89.3588C234.132 89.1884 234.564 89.1032 235.033 89.1032C235.738 89.1032 236.367 89.2698 236.92 89.6032C237.473 89.9327 237.908 90.3873 238.227 90.9668C238.545 91.5463 238.704 92.2092 238.704 92.9554C238.704 93.7244 238.526 94.41 238.17 95.0123C237.817 95.6107 237.327 96.0823 236.698 96.427C236.073 96.7679 235.35 96.9384 234.528 96.9384ZM241.506 96.9043C241.162 96.9043 240.866 96.7831 240.62 96.5407C240.374 96.2982 240.253 96.0028 240.256 95.6543C240.253 95.3134 240.374 95.0217 240.62 94.7793C240.866 94.5369 241.162 94.4157 241.506 94.4157C241.84 94.4157 242.13 94.5369 242.376 94.7793C242.626 95.0217 242.753 95.3134 242.756 95.6543C242.753 95.8854 242.692 96.0956 242.575 96.285C242.461 96.4744 242.309 96.6259 242.12 96.7395C241.934 96.8494 241.73 96.9043 241.506 96.9043ZM244.857 96.7793V95.2566L248.897 91.2963C249.283 90.9062 249.605 90.5596 249.863 90.2566C250.121 89.9535 250.314 89.66 250.442 89.3759C250.571 89.0918 250.636 88.7888 250.636 88.4668C250.636 88.0994 250.552 87.785 250.386 87.5236C250.219 87.2585 249.99 87.0539 249.698 86.91C249.407 86.766 249.075 86.6941 248.704 86.6941C248.321 86.6941 247.986 86.7736 247.698 86.9327C247.41 87.088 247.187 87.3096 247.028 87.5975C246.872 87.8854 246.795 88.2282 246.795 88.6259H244.789C244.789 87.8873 244.958 87.2452 245.295 86.6998C245.632 86.1543 246.096 85.7319 246.687 85.4327C247.282 85.1335 247.963 84.9838 248.732 84.9838C249.513 84.9838 250.198 85.1297 250.789 85.4213C251.38 85.713 251.838 86.1126 252.164 86.6202C252.494 87.1278 252.658 87.7073 252.658 88.3588C252.658 88.7944 252.575 89.2225 252.408 89.6429C252.242 90.0634 251.948 90.5293 251.528 91.0407C251.111 91.552 250.526 92.1713 249.772 92.8986L247.766 94.9384V95.0179H252.835V96.7793H244.857ZM255.221 96.7793L260.17 86.9838V86.9043H254.425V85.1429H262.352V86.9441L257.408 96.7793H255.221ZM268.177 96.7793V88.052H270.143V89.535H270.245C270.427 89.035 270.728 88.6448 271.148 88.3645C271.569 88.0804 272.071 87.9384 272.654 87.9384C273.245 87.9384 273.743 88.0823 274.148 88.3702C274.558 88.6543 274.845 89.0426 275.012 89.535H275.103C275.296 89.0501 275.622 88.6638 276.08 88.3759C276.542 88.0842 277.09 87.9384 277.722 87.9384C278.525 87.9384 279.181 88.1922 279.688 88.6998C280.196 89.2073 280.45 89.9479 280.45 90.9213V96.7793H278.387V91.2395C278.387 90.6979 278.243 90.302 277.955 90.052C277.667 89.7982 277.315 89.6713 276.898 89.6713C276.402 89.6713 276.014 89.8266 275.734 90.1373C275.457 90.4441 275.319 90.8437 275.319 91.3361V96.7793H273.302V91.1543C273.302 90.7035 273.166 90.3437 272.893 90.0748C272.624 89.8058 272.272 89.6713 271.836 89.6713C271.541 89.6713 271.272 89.7471 271.029 89.8986C270.787 90.0463 270.594 90.2566 270.45 90.5293C270.306 90.7982 270.234 91.1126 270.234 91.4725V96.7793H268.177ZM282.627 96.7793V85.1429H284.684V89.4952H284.769C284.875 89.2831 285.025 89.0577 285.218 88.8191C285.411 88.5766 285.673 88.3702 286.002 88.1998C286.332 88.0255 286.752 87.9384 287.264 87.9384C287.938 87.9384 288.546 88.1107 289.087 88.4554C289.633 88.7963 290.065 89.302 290.383 89.9725C290.705 90.6391 290.866 91.4573 290.866 92.427C290.866 93.3854 290.709 94.1998 290.394 94.8702C290.08 95.5407 289.652 96.052 289.11 96.4043C288.568 96.7566 287.955 96.9327 287.269 96.9327C286.769 96.9327 286.354 96.8494 286.025 96.6827C285.695 96.516 285.43 96.3153 285.229 96.0804C285.032 95.8418 284.879 95.6164 284.769 95.4043H284.65V96.7793H282.627ZM284.644 92.4157C284.644 92.9801 284.724 93.4744 284.883 93.8986C285.046 94.3229 285.279 94.6543 285.582 94.8929C285.889 95.1278 286.26 95.2452 286.695 95.2452C287.15 95.2452 287.531 95.124 287.837 94.8816C288.144 94.6354 288.375 94.3001 288.531 93.8759C288.69 93.4479 288.769 92.9611 288.769 92.4157C288.769 91.874 288.692 91.3929 288.536 90.9725C288.381 90.552 288.15 90.2225 287.843 89.9838C287.536 89.7452 287.154 89.6259 286.695 89.6259C286.256 89.6259 285.883 89.7414 285.576 89.9725C285.269 90.2035 285.036 90.5274 284.877 90.9441C284.722 91.3607 284.644 91.8513 284.644 92.4157ZM297.364 84.5975L293.614 98.5293H291.813L295.563 84.5975H297.364ZM305.575 90.3588L303.7 90.5634C303.647 90.374 303.554 90.196 303.421 90.0293C303.292 89.8626 303.118 89.7282 302.898 89.6259C302.679 89.5236 302.41 89.4725 302.092 89.4725C301.664 89.4725 301.304 89.5653 301.012 89.7509C300.724 89.9365 300.582 90.177 300.586 90.4725C300.582 90.7263 300.675 90.9327 300.864 91.0918C301.058 91.2509 301.376 91.3816 301.819 91.4838L303.308 91.802C304.133 91.9801 304.747 92.2623 305.148 92.6486C305.554 93.035 305.758 93.5407 305.762 94.1657C305.758 94.7149 305.597 95.1998 305.279 95.6202C304.965 96.0369 304.527 96.3626 303.967 96.5975C303.406 96.8323 302.762 96.9498 302.035 96.9498C300.967 96.9498 300.107 96.7263 299.455 96.2793C298.804 95.8285 298.416 95.2016 298.291 94.3986L300.296 94.2054C300.387 94.5994 300.58 94.8967 300.876 95.0975C301.171 95.2982 301.556 95.3986 302.029 95.3986C302.518 95.3986 302.91 95.2982 303.205 95.0975C303.505 94.8967 303.654 94.6486 303.654 94.3532C303.654 94.1032 303.558 93.8967 303.364 93.7338C303.175 93.571 302.88 93.446 302.478 93.3588L300.989 93.0463C300.152 92.8721 299.533 92.5785 299.131 92.1657C298.73 91.749 298.531 91.2225 298.535 90.5861C298.531 90.0482 298.677 89.5823 298.972 89.1884C299.272 88.7907 299.686 88.4838 300.217 88.2679C300.751 88.0482 301.366 87.9384 302.063 87.9384C303.086 87.9384 303.891 88.1562 304.478 88.5918C305.069 89.0274 305.434 89.6164 305.575 90.3588Z" fill="black"/>
</g>
<defs>
<filter id="filter0_d_0_3385" x="0.703455" y="0.234485" width="418.174" height="152.496" filterUnits="userSpaceOnUse" color-interpolation-filters="sRGB">
<feFlood flood-opacity="0" result="BackgroundImageFix"/>
<feColorMatrix in="SourceAlpha" type="matrix" values="0 0 0 0 0 0 0 0 0 0 0 0 0 0 0 0 0 0 127 0" result="hardAlpha"/>
<feOffset dy="9.53103"/>
<feGaussianBlur stdDeviation="7.14827"/>
<feComposite in2="hardAlpha" operator="out"/>
<feColorMatrix type="matrix" values="0 0 0 0 0 0 0 0 0 0 0 0 0 0 0 0 0 0 0.05 0"/>
<feBlend mode="normal" in2="BackgroundImageFix" result="effect1_dropShadow_0_3385"/>
<feBlend mode="normal" in="SourceGraphic" in2="effect1_dropShadow_0_3385" result="shape"/>
</filter>
</defs>
</svg>
